<svg id="logo_zhb04" xmlns="http://www.w3.org/2000/svg" width="80" height="80" viewBox="0 0 80 80">
  <g id="logo_zhb04-2" data-name="logo_zhb04">
    <rect id="矩形_3431" data-name="矩形 3431" width="80" height="80" fill="#fff" opacity="0"/>
    <g id="组_49780" data-name="组 49780" transform="translate(-106.563 -741.562)">
      <path id="路径_60" data-name="路径 60" d="M8.389,0h3.775V49.5H8.389A8.389,8.389,0,0,1,0,41.108V8.389A8.389,8.389,0,0,1,8.389,0Z" transform="translate(111.562 781.561) rotate(-45)" fill="#505bde"/>
      <path id="路径_61" data-name="路径 61" d="M0,0H3.775a8.389,8.389,0,0,1,8.389,8.389V31.041H0Z" transform="translate(120.164 790.163) rotate(-135)" fill="#505bde"/>
      <path id="路径_62" data-name="路径 62" d="M0,0H12.165V31.041H8.389A8.389,8.389,0,0,1,0,22.652Z" transform="translate(159.613 803.51) rotate(-135)" fill="#505bde"/>
      <path id="路径_63" data-name="路径 63" d="M0,0H12.165V37.389H8.389A8.389,8.389,0,0,1,0,29Z" transform="translate(173 773) rotate(135)" fill="#505bde"/>
      <path id="路径_64" data-name="路径 64" d="M2.1,0h8.389a2.1,2.1,0,0,1,2.1,2.1v8.389a2.1,2.1,0,0,1-2.1,2.1H2.1a2.1,2.1,0,0,1-2.1-2.1V2.1A2.1,2.1,0,0,1,2.1,0Z" transform="translate(140.27 775.269)" fill="#505bde"/>
    </g>
  </g>
</svg>
