<svg id="组_49411" data-name="组 49411" xmlns="http://www.w3.org/2000/svg" width="120" height="120" viewBox="0 0 120 120">
  <rect id="矩形_3059" data-name="矩形 3059" width="120" height="120" fill="#505bde" opacity="0"/>
  <rect id="矩形_3329" data-name="矩形 3329" width="86.897" height="86.897" rx="3" transform="translate(18.621 20.69)" fill="#1b55b7"/>
  <rect id="矩形_3330" data-name="矩形 3330" width="78.621" height="78.621" transform="translate(22.759 24.828)" fill="#fff"/>
  <rect id="矩形_3099" data-name="矩形 3099" width="78.621" height="86.897" rx="3" transform="translate(20.69 14.483)" fill="#0277ff"/>
  <path id="路径_70" data-name="路径 70" d="M29.51,41.379V38.237h5.88v3.143Zm5.88-.218V38.019h2.94V35.094h2.94v3.142H38.33v2.925Zm-17.64,0V38.019h2.83V35.312H17.64V26.321h2.94V23.505h3.159v5.958H20.8V32.17h8.054v3.143H23.739v5.849ZM0,41.162V26.321H14.919V41.162Zm3.159-3.143h8.6V29.463h-8.6Zm22.753.436V35.312h2.94v3.142Zm6.537-3.142V32.17h5.88V29.245h2.94v3.143H38.33v2.924Zm-26.46,0V32.17H8.93v3.142Zm20.58-5.849V26.321h8.82V23.614H23.739V20.472h3.353V17.765h3.159v2.707H38.33V17.547h2.94v6.067H38.33v5.849ZM.2,24.134V17.656H3.361v3.335H6.082v3.143Zm10.926-.519V20.908H6.082V17.765H17.64v3.143H14.287v2.707Zm6.512-5.958V11.7h2.94V8.991H17.64V0h5.989V3.143H20.8V5.849h2.94v8.991H20.8v2.816Zm8.82-2.816V0H41.379V14.841ZM29.619,11.7h8.6V3.143h-8.6ZM0,14.841V0H14.919V14.841ZM3.159,11.7h8.6V3.143h-8.6ZM32.45,8.991V5.849h2.94V8.991Zm-26.46,0V5.849H8.93V8.991Z" transform="translate(41.379 37.241)" fill="#fff"/>
  <g id="椭圆_94" data-name="椭圆 94" transform="translate(24.828 23.793)" fill="#fff" stroke="rgba(0,0,0,0.29)" stroke-width="0.5">
    <circle cx="3.103" cy="3.103" r="3.103" stroke="none"/>
    <circle cx="3.103" cy="3.103" r="3.353" fill="none"/>
  </g>
  <g id="椭圆_95" data-name="椭圆 95" transform="translate(24.828 44.483)" fill="#fff" stroke="rgba(0,0,0,0.29)" stroke-width="0.5">
    <circle cx="3.103" cy="3.103" r="3.103" stroke="none"/>
    <circle cx="3.103" cy="3.103" r="3.353" fill="none"/>
  </g>
  <g id="椭圆_96" data-name="椭圆 96" transform="translate(24.828 65.172)" fill="#fff" stroke="rgba(0,0,0,0.29)" stroke-width="0.5">
    <circle cx="3.103" cy="3.103" r="3.103" stroke="none"/>
    <circle cx="3.103" cy="3.103" r="3.353" fill="none"/>
  </g>
  <g id="椭圆_97" data-name="椭圆 97" transform="translate(24.828 85.862)" fill="#fff" stroke="rgba(0,0,0,0.29)" stroke-width="0.5">
    <circle cx="3.103" cy="3.103" r="3.103" stroke="none"/>
    <circle cx="3.103" cy="3.103" r="3.353" fill="none"/>
  </g>
  <rect id="矩形_3325" data-name="矩形 3325" width="14.483" height="4.138" rx="2.069" transform="translate(14.483 24.828)" fill="#1e1a29"/>
  <rect id="矩形_3326" data-name="矩形 3326" width="14.483" height="4.138" rx="2.069" transform="translate(14.483 45.517)" fill="#1e1a29"/>
  <rect id="矩形_3327" data-name="矩形 3327" width="14.483" height="4.138" rx="2.069" transform="translate(14.483 66.207)" fill="#1e1a29"/>
  <rect id="矩形_3328" data-name="矩形 3328" width="14.483" height="4.138" rx="2.069" transform="translate(14.483 86.897)" fill="#1e1a29"/>
</svg>
