<svg id="组_49362" data-name="组 49362" xmlns="http://www.w3.org/2000/svg" width="24" height="24" viewBox="0 0 24 24">
  <rect id="矩形_3041" data-name="矩形 3041" width="24" height="24" fill="#ddd" opacity="0"/>
  <g id="组_49361" data-name="组 49361" transform="translate(-1)">
    <circle id="椭圆_88" data-name="椭圆 88" cx="10" cy="10" r="10" transform="translate(3 2)" fill="#fff"/>
    <path id="路径_484" data-name="路径 484" d="M51.6,42.792a10.039,10.039,0,0,1,4.666.559,9.932,9.932,0,0,1,3.574,2.3c-.859.852-1.71,1.712-2.568,2.564a6.487,6.487,0,0,0-1.907-1.308A6.364,6.364,0,1,0,54.345,58.89c.085-.041.133.056.186.1q1.3,1.309,2.609,2.614a10.019,10.019,0,0,1-9.207-.236,10.332,10.332,0,0,1-1.5-1.013,9.523,9.523,0,0,1-1.06-1.009,9.71,9.71,0,0,1-1.389-1.937c-.085-.165-.184-.322-.254-.494-.1-.193-.178-.391-.261-.59-.106-.283-.219-.563-.3-.856a.339.339,0,0,0-.054-.1,9.637,9.637,0,0,1-.329-1.876,10.257,10.257,0,0,1,.1-2.388,10,10,0,0,1,8.7-8.314m1.048,1.076a.71.71,0,0,0-.328.158.683.683,0,1,0,.328-.158m-5.711,2.387a.7.7,0,0,0-.323.1.685.685,0,1,0,1.032.71.686.686,0,0,0-.709-.809m-2.471,5.8a.707.707,0,0,0-.374.2.684.684,0,1,0,.374-.2m2.387,5.8a.684.684,0,0,0-.34,1.177.69.69,0,0,0,.483.177.683.683,0,1,0-.143-1.355m5.8,2.388a.682.682,0,1,0,.535.13A.683.683,0,0,0,52.646,60.237Z" transform="translate(-39.766 -40.725)" fill="#ccc"/>
    <path id="联合_40" data-name="联合 40" d="M23219.232,14454.33a.688.688,0,0,1-.256-.746.684.684,0,1,1,.85.845.714.714,0,0,1-.2.028A.662.662,0,0,1,23219.232,14454.33Zm5.631-2.564a.663.663,0,0,1-.1-.514.685.685,0,0,1,.543-.536.663.663,0,0,1,.482.1.684.684,0,0,1,.135,1.043.707.707,0,0,1-.473.21h-.029A.676.676,0,0,1,23224.863,14451.766Zm-14.014-5.847a.683.683,0,0,1,.105-.8.72.72,0,0,1,.373-.2.685.685,0,0,1,.775.49.676.676,0,0,1-.4.821.611.611,0,0,1-.244.053A.69.69,0,0,1,23210.85,14445.919Zm2.32-5.957a.684.684,0,0,1,.629-.84.669.669,0,0,1,.514.192.68.68,0,0,1-.473,1.172h-.021A.681.681,0,0,1,23213.17,14439.962Zm5.836-2.273a.69.69,0,0,1,.174-.793.683.683,0,1,1,.688,1.154.6.6,0,0,1-.227.047A.707.707,0,0,1,23219.006,14437.688Z" transform="translate(-23206.633 -14433.592)" fill="#fff"/>
    <path id="路径_487" data-name="路径 487" d="M226.809,180.142l0,0a10.352,10.352,0,0,1,1.4,1.758,9.939,9.939,0,0,1,1.446,4.033,10.059,10.059,0,0,1-.044,2.883,10.012,10.012,0,0,1-5.42,7.355l-.013-.006-.065-.069q-1.3-1.308-2.609-2.614c-.053-.048-.1-.144-.186-.1a6.38,6.38,0,0,1-2.367.149,6.315,6.315,0,0,1-2.6-.927,6.386,6.386,0,0,1-1.752-1.635,6.365,6.365,0,0,1,7.733-9.567,6.487,6.487,0,0,1,1.907,1.308c.858-.853,1.709-1.713,2.568-2.564m-7.5,3.921a3.115,3.115,0,0,0-1.276.468,3.174,3.174,0,0,0-.913,4.488,4.538,4.538,0,0,0,.589.669q1.833,1.835,3.665,3.67a6.381,6.381,0,0,0,4.632-5.061c.005-.022,0-.062.039-.055h1.895a.924.924,0,0,0,.869-.713.1.1,0,0,0-.014-.071,1.136,1.136,0,0,0,.029-.371l-.005.009a.91.91,0,0,0-.879-.792h-5.156a3.21,3.21,0,0,0-.725-1.262,3.171,3.171,0,0,0-2.132-1,3.893,3.893,0,0,0-.619.022m6.1,8.276a.683.683,0,0,0-.548.537.681.681,0,0,0,.689.812.691.691,0,0,0,.472-.206.7.7,0,0,0,.185-.431.675.675,0,0,0-.317-.617A.665.665,0,0,0,225.416,192.339Z" transform="translate(-206.738 -175.212)" fill="#bbb"/>
    <path id="路径_489" data-name="路径 489" d="M365.677,363.142a3.887,3.887,0,0,1,.619-.022,3.171,3.171,0,0,1,2.132,1,3.21,3.21,0,0,1,.725,1.262H366.1a.91.91,0,1,0,.02,1.821q4.05,0,8.1,0a1.058,1.058,0,0,0,.3-.032.914.914,0,0,0,.636-.633.1.1,0,0,1,.014.071.924.924,0,0,1-.869.713h-1.895c-.035-.007-.034.033-.039.055a6.381,6.381,0,0,1-4.632,5.061q-1.834-1.833-3.665-3.67a4.541,4.541,0,0,1-.589-.669,3.163,3.163,0,0,1-.5-1.183,3.174,3.174,0,0,1,1.415-3.305A3.116,3.116,0,0,1,365.677,363.142Z" transform="translate(-353.104 -354.291)" fill="#999" opacity="0.995"/>
    <path id="路径_493" data-name="路径 493" d="M59.49,636.08a.34.34,0,0,1,.054.1c.077.292.19.573.3.856.083.2.166.4.261.59.069.172.168.33.254.494a9.71,9.71,0,0,0,1.389,1.937,9.526,9.526,0,0,0,1.06,1.009,10.34,10.34,0,0,0,1.5,1.013,10.019,10.019,0,0,0,9.207.236l.065.069v.013a9.945,9.945,0,0,1-2.868.914,10.126,10.126,0,0,1-3.662-.1,10.018,10.018,0,0,1-7.1-5.835A8.967,8.967,0,0,1,59.49,636.08Z" transform="translate(-56.133 -621.435)" fill="#939393"/>
  </g>
</svg>
