<svg id="组_49305" data-name="组 49305" xmlns="http://www.w3.org/2000/svg" xmlns:xlink="http://www.w3.org/1999/xlink" width="60" height="60" viewBox="0 0 60 60">
  <defs>
    <linearGradient id="linear-gradient" x1="0.5" x2="0.5" y2="1" gradientUnits="objectBoundingBox">
      <stop offset="0" stop-color="#ebf3ff"/>
      <stop offset="1" stop-color="#a2c6ff"/>
    </linearGradient>
    <clipPath id="clip-path">
      <circle id="椭圆_93" data-name="椭圆 93" cx="30" cy="30" r="30" fill="url(#linear-gradient)"/>
    </clipPath>
    <linearGradient id="linear-gradient-2" x1="0.5" x2="0.5" y2="1" gradientUnits="objectBoundingBox">
      <stop offset="0" stop-color="#313c3c"/>
      <stop offset="1" stop-color="#363840"/>
    </linearGradient>
  </defs>
  <g id="蒙版组_2" data-name="蒙版组 2" clip-path="url(#clip-path)">
    <circle id="椭圆_74" data-name="椭圆 74" cx="30" cy="30" r="30" fill="#e6f2ff"/>
    <g id="组_49374" data-name="组 49374" transform="translate(10 7.799)">
      <path id="路径_505" data-name="路径 505" d="M14.933,0A15.01,15.01,0,0,1,29.867,15.086,15.01,15.01,0,0,1,14.933,30.172,15.01,15.01,0,0,1,0,15.086,15.01,15.01,0,0,1,14.933,0Z" transform="translate(5.066)" fill="#ffd7a8"/>
      <path id="路径_86" data-name="路径 86" d="M14.933,0A15.01,15.01,0,0,1,29.867,15.086c-15.351,5.969-10.3-5.058-18.089-4.965C4.644,10.211,0,19.343,0,15.086A15.01,15.01,0,0,1,14.933,0Z" transform="translate(5.066)" fill="url(#linear-gradient-2)"/>
      <path id="路径_506" data-name="路径 506" d="M15.238,0h9.524A15.238,15.238,0,0,1,40,15.238v4.876H0V15.238A15.238,15.238,0,0,1,15.238,0Z" transform="translate(0 32.686)" fill="#488eff"/>
    </g>
  </g>
</svg>
