<svg id="组_49355" data-name="组 49355" xmlns="http://www.w3.org/2000/svg" width="100" height="65" viewBox="0 0 100 65">
  <g id="矩形_3294" data-name="矩形 3294" fill="#fff" stroke="#707070" stroke-width="1" opacity="0">
    <rect width="100" height="65" stroke="none"/>
    <rect x="0.5" y="0.5" width="99" height="64" fill="none"/>
  </g>
  <g id="矩形_3201" data-name="矩形 3201" transform="translate(5 5)" fill="#fff" stroke="#ccc" stroke-width="1">
    <rect width="90" height="56" rx="3" stroke="none"/>
    <rect x="0.5" y="0.5" width="89" height="55" rx="2.5" fill="none"/>
  </g>
  <rect id="矩形_3248" data-name="矩形 3248" width="36.402" height="2.54" rx="1.27" transform="translate(48.867 26.52)" fill="#ccc"/>
  <rect id="矩形_3289" data-name="矩形 3289" width="71.11" height="2.54" rx="1.27" transform="translate(14.158 54.207)" fill="#ccc"/>
  <rect id="矩形_3249" data-name="矩形 3249" width="21.841" height="2.54" rx="1.27" transform="translate(48.867 33.715)" fill="#ccc"/>
  <path id="路径_482" data-name="路径 482" d="M13.363,25.962a2.191,2.191,0,0,0-.446-.036,22.366,22.366,0,0,1-3.736-.112c-.339-.039-.582-.355-.946-.285-.008,0-.026-.013-.028-.023-.075-.415-.289-.338-.517-.261a.776.776,0,0,1-.3.06c.2-.227.448-.219.662-.292a.087.087,0,0,1,.068.018c1.079.84,1.168.526,2.59.7a7.131,7.131,0,0,0,1.29,0,7.581,7.581,0,0,1,1.2-.006,7.05,7.05,0,0,0,1.44-.048,9.017,9.017,0,0,1,1.089-.067.9.9,0,0,0,.436-.14.769.769,0,0,1,.516-.131c.021,0,.058-.041.078-.069.061-.09-.03-.275.179-.273a1.5,1.5,0,0,1,.657.318c-.2-.053-.355-.1-.509-.131-.095-.02-.246-.052-.243.084.007.326-.249.205-.4.29-.775.438-1.648.215-2.453.406a1.061,1.061,0,0,1-.245.027A2.564,2.564,0,0,1,13.363,25.962Zm4.407-.106c-.013-.116.065-.115.137-.115h.048c.275-.027.551-.047.826-.072s.579.019.694-.365c.047-.158.277-.129.433-.165.221-.051.486-.037.467-.4-.009-.172.195-.167.322-.189.26-.045.525-.049.614-.383.043-.161.225-.13.358-.142.231-.021.319-.1.271-.362-.185-1.03-.339-2.064-.506-3.1-.015-.091-.088-.174.059-.246a1.829,1.829,0,0,0,.778-.888c.289-.583.674-1.1.985-1.67a17.73,17.73,0,0,0,1.21-2.975A5.069,5.069,0,0,0,24.816,13a20.946,20.946,0,0,0-.144-2.418A12.8,12.8,0,0,0,23.225,6.4c-.157-.286-.083-.633-.329-.877a23.552,23.552,0,0,0-3.311-3.045A12.172,12.172,0,0,0,11.991.249,12.3,12.3,0,0,0,3.078,4.593a1.446,1.446,0,0,1-.44.325,1.617,1.617,0,0,0-.708.967,2.894,2.894,0,0,1-.14.441,13.273,13.273,0,0,0-1.4,3.851A11.729,11.729,0,0,0,.2,12.338a6.082,6.082,0,0,0,.03,1.22,14.6,14.6,0,0,0,2.152,5.255,10,10,0,0,0,.73,1.163c.041.047.068.12.118.144.457.214.32.573.257.932-.152.871-.273,1.747-.432,2.617-.048.263.047.351.278.353a.392.392,0,0,1,.423.291c.082.24.329.187.515.227.2.044.379.074.386.356s.281.193.442.24c.211.062.447.037.487.355.02.162.219.144.349.158.362.038.727.059,1.09.091h.046c.072,0,.152,0,.138.116s-.114.084-.182.079q-.658-.046-1.316-.105c-.058-.005-.157-.041-.161-.072-.059-.456-.462-.384-.746-.474-.16-.05-.282-.079-.267-.282.017-.231-.174-.236-.331-.275-.266-.067-.579-.03-.665-.419-.027-.122-.153-.121-.274-.119a.831.831,0,0,1-.13,0c-.2-.031-.263-.087-.222-.314.193-1.055.358-2.115.533-3.173.016-.1.072-.22-.046-.269a1.919,1.919,0,0,1-.9-1.016c-.224-.436-.5-.834-.743-1.253A14.816,14.816,0,0,1,.343,14.749,6.355,6.355,0,0,1,.017,13.3a13.516,13.516,0,0,1,.32-3.738A15.917,15.917,0,0,1,1.654,6.154,7.787,7.787,0,0,1,2.2,5.018c.189-.266.521-.244.714-.508A8.5,8.5,0,0,1,4.418,2.992,13.021,13.021,0,0,1,11.4.083c.149-.016.3-.055.443-.083h1.284c.814.15,1.639.228,2.442.447A12.678,12.678,0,0,1,22.015,4.4a2.631,2.631,0,0,0,.54.429,1.276,1.276,0,0,1,.636.978,1.426,1.426,0,0,0,.259.569,12.354,12.354,0,0,1,1.514,5.66,7,7,0,0,1-.032,1.662,17.978,17.978,0,0,1-1.058,3.218,12.958,12.958,0,0,1-1.085,1.924,7.471,7.471,0,0,1-.811,1.288c-.1.1-.163.245-.339.276-.159.028-.109.158-.09.272.175,1.045.332,2.094.524,3.135.053.283-.039.369-.287.374-.205,0-.373.05-.42.283-.04.2-.212.169-.355.206-.258.068-.618.018-.583.466.008.108-.123.1-.2.127-.3.108-.7.035-.8.481-.007.034-.105.066-.164.071q-.657.063-1.315.113c-.022,0-.048.005-.073.005C17.826,25.941,17.778,25.927,17.77,25.856Zm-3.192-.31-1.021.1A2.25,2.25,0,0,1,14.579,25.546ZM17.9,23.152a10.845,10.845,0,0,1,.145,2c.015.26-.277.256-.366.433A8.733,8.733,0,0,0,17.9,23.152Zm.157,2.314a2.269,2.269,0,0,1,1.035,0l-1.025.1C18.062,25.533,18.058,25.5,18.054,25.466Zm-12.184,0a1.246,1.246,0,0,1,1.05.1Zm1.072-.592c.051-.579.066-1.16.1-1.74l.106,0a6.444,6.444,0,0,0,.188,2.424A.588.588,0,0,1,6.942,24.874Zm5.851.162c0,.3.125.47.45.431a1.227,1.227,0,0,1-.314.074C12.781,25.542,12.775,25.411,12.792,25.037Zm1.222.179a1.134,1.134,0,0,1,.06-.712c.039.281.069.487.095.694.007.06.013.131-.074.14h-.016C14,25.338,14.015,25.273,14.014,25.215Zm-3.134.112c-.062-.014-.068-.065-.06-.116.031-.212.064-.424.1-.636l.069,0c0,.213,0,.426,0,.639,0,.057-.012.113-.074.113A.143.143,0,0,1,10.88,25.327Zm.857-.109c-.138-.011-.276-.024-.413-.033-.2-.015-.142-.167-.144-.281s.012-.206.168-.14a.205.205,0,0,0,.26-.093.168.168,0,0,1,.282-.038.532.532,0,0,1,.086.5c-.011.085-.058.107-.114.107A.767.767,0,0,1,11.736,25.218ZM13,25.1a.544.544,0,0,1,.127-.48c.091-.084.178-.058.247.043a.214.214,0,0,0,.255.106c.216-.073.177.1.2.2.027.131-.01.214-.167.216s-.3.022-.446.034a.42.42,0,0,1-.082.01C13.061,25.232,13.007,25.2,13,25.1ZM15.345,24a2.239,2.239,0,0,1,0,1.189ZM6.63,25.187c-.076-.006-.108-.045-.1-.122q.121-1,.241-2a9.936,9.936,0,0,1,.008,1.966c0,.095-.031.161-.133.161Zm11.576-.157c0-.665,0-1.33,0-2.076.092.733.175,1.384.255,2.036.011.084.033.183-.1.2h-.025C18.242,25.186,18.206,25.127,18.206,25.03Zm-8.579-.914v1.069A2.576,2.576,0,0,1,9.627,24.116Zm4.792.993c-.117-.028-.131-.094-.131-.186,0-.162,0-.323,0-.484s-.025-.3.228-.253c.163.032.253-.136.367-.228.057-.046.107-.123.19-.1.117.035.07.143.075.223.007.124,0,.248,0,.372,0,.037,0,.075,0,.112,0,.366-.2.571-.515.571A.939.939,0,0,1,14.419,25.109Zm-4.5-.077c-.1-.022-.077-.115-.077-.186,0-.261,0-.522,0-.782,0-.069-.031-.158.056-.2s.138.029.193.077a.88.88,0,0,0,.51.257c.223.026.032.3.107.435-.048.158.08.383-.089.449a.573.573,0,0,1-.21.037A2.284,2.284,0,0,1,9.918,25.032Zm8.819-.1,1.191-.089c0,.029.005.059.008.088l-1.194.1C18.74,25,18.739,24.968,18.737,24.935Zm-13.69,0c0-.03,0-.06.007-.089l1.191.088c0,.033,0,.066,0,.1Zm3.722.01c-.114-.023-.23-.045-.227-.2,0-.131-.044-.281.132-.351.219-.088.436-.18.683-.282,0,.156,0,.255,0,.354-.009.389-.048.52-.273.52A1.684,1.684,0,0,1,8.769,24.945Zm6.864-.47c0-.109,0-.217,0-.361.236.1.438.191.647.265s.167.223.163.369c0,.17-.138.181-.264.2a2.279,2.279,0,0,1-.308.034C15.653,24.983,15.638,24.87,15.634,24.476Zm-7.873.349a.982.982,0,0,1,.573-.22s.021.06.015.065a1.789,1.789,0,0,1-.592.216C7.759,24.846,7.755,24.83,7.761,24.825Zm9.439.058c-.189-.067-.376-.137-.562-.21a.187.187,0,0,1,.01-.066,1.159,1.159,0,0,1,.642.239.469.469,0,0,1-.085.038ZM5.88,24.733a1.558,1.558,0,0,0-.226,0,1.091,1.091,0,0,1-.484-.065c.749-.093.736-.094.827-.808a6.549,6.549,0,0,1,.156-1.183c.211.038.17.194.163.324-.026.474-.06.947-.087,1.42-.011.2-.083.321-.279.321A.593.593,0,0,1,5.88,24.733ZM18.786,24.5c-.061-.53-.111-1.062-.181-1.591a.18.18,0,0,1,.147-.218c.178-.052.133.121.141.189.048.407.083.816.111,1.225.036.529.035.532.56.521.06,0,.121.005.181.008l-.006.094c-.258,0-.516,0-.774,0h0C18.8,24.727,18.8,24.606,18.786,24.5Zm-.377-1.562.064-.006q.087.886.174,1.772l-.058.006Zm-11.89-.048a6.51,6.51,0,0,1-.175,1.8Zm8.44.667L15,23.46l2.343,1.088-.054.118Zm-7.325,1L10,23.448a15.683,15.683,0,0,1-2.311,1.216Zm11.857-.145a2.981,2.981,0,0,1,1.384-.153,3.179,3.179,0,0,1-1.025.172A3.519,3.519,0,0,1,19.49,24.413ZM4.2,24.268a3.484,3.484,0,0,1,1.334.13,2.909,2.909,0,0,1-.419.031A2.662,2.662,0,0,1,4.2,24.268Zm3.29,0L9.656,23.22l.057.148a20.018,20.018,0,0,1-2.179.995Zm7.781-.883.067-.145,2.185,1.028-.039.088A20.1,20.1,0,0,1,15.269,23.383ZM5.945,22.66,5.767,24.2A4.8,4.8,0,0,1,5.945,22.66Zm13.1-.028.04-.006.238,1.551-.1.018Q19.137,23.415,19.046,22.633ZM5.166,24.127c-.3-.054-.611-.078-.964-.121a.414.414,0,0,1,.331-.056c.5.046.49.047.525-.441.033-.457.1-.912.149-1.37.421.075.581.286.5.684-.067.329-.108.662-.151,1-.026.2-.1.319-.286.319A.6.6,0,0,1,5.166,24.127Zm14.315-.167c-.071-.467-.149-.934-.212-1.4-.04-.3.24-.364.41-.391s.138.211.153.342c.044.384.085.768.1,1.154.015.3.119.409.422.3a.737.737,0,0,1,.247-.024c.039,0,.078,0,.116,0l.008.076c-.366.038-.733.077-1.1.113h-.02C19.506,24.132,19.494,24.044,19.481,23.96Zm-9.854.094q0,.031,0,.062Zm4.8-.205c.173.065.384-.014.24-.276-.12-.218-.014-.331.168-.437-.012.17-.092.31-.03.5.07.21-.186.353-.3.334a2.02,2.02,0,0,0-.7.124C14.017,23.881,14.152,23.745,14.43,23.849Zm-5.515-.513a4.739,4.739,0,0,1-1.541.724A12.557,12.557,0,0,1,8.915,23.336Zm1.265-.219c.153.114.265.22.146.445-.156.295.06.36.259.282.273-.107.386.058.583.2C10.546,24.013,9.971,23.982,10.18,23.117Zm5.888.286.052-.11,1.493.724A5.061,5.061,0,0,1,16.068,23.4Zm4.883.437a1.4,1.4,0,0,0-.438-.1c.258-.03.516-.066.775-.087.113-.009.294-.071.3.1.01.153-.186.109-.289.15a.282.282,0,0,1-.107.021A.5.5,0,0,1,20.951,23.84Zm-17.138.077c-.152-.019-.41-.023-.4-.15.012-.238.254-.111.392-.1.277.012.553.058.829.089a1.125,1.125,0,0,0-.676.131.24.24,0,0,1-.121.036Zm7.127-.79a2.89,2.89,0,0,0,1.543.632,2.728,2.728,0,0,0,1.552-.629,1.731,1.731,0,0,1-1.544.7A1.7,1.7,0,0,1,10.94,23.128Zm-2.582.12a1.56,1.56,0,0,1-.95.444Zm8.233.083.038-.087.948.443A2.6,2.6,0,0,1,16.59,23.331Zm-11.761.261.177-1.642.049,0q-.068.823-.136,1.645Zm15.154-1.636q.09.815.18,1.629A5.548,5.548,0,0,1,19.983,21.956Zm-16.2,1.5c-.1-.027-.163-.068-.153-.174a16.994,16.994,0,0,1,.295-2.48c.005-.02.029-.036.063-.078a4.171,4.171,0,0,0,.488.5.906.906,0,0,1,.319,1.109,5.775,5.775,0,0,0-.12.585c-.076.415-.222.594-.527.594A1.444,1.444,0,0,1,3.78,23.452Zm16.507-.61a1.659,1.659,0,0,1,.642-2.048.962.962,0,0,1,.1-.059,3.2,3.2,0,0,1,.212,1.165c.073.428.073.867.121,1.3.019.175-.025.239-.209.26a4.005,4.005,0,0,1-.4.033C20.455,23.493,20.459,23.357,20.288,22.842Zm-17.016.607q.147-.888.294-1.777l.05.011q-.134.889-.268,1.777Zm18.163-1.418.049-.007.239,1.406-.082.006Q21.538,22.733,21.434,22.031Zm-9.918.824a1.572,1.572,0,0,0,1.948,0,1.213,1.213,0,0,1-.992.436A1.1,1.1,0,0,1,11.517,22.854Zm4.023.3c.968-.252,2.073-.111,3.05-.63a5.721,5.721,0,0,1-2.634.662A2.3,2.3,0,0,1,15.539,23.154Zm-9.082-.616c.152.062.3.128.455.185a1.337,1.337,0,0,0,.5.16c.718-.054,1.387.268,2.091.274q-.154,0-.306,0A5.337,5.337,0,0,1,6.457,22.537Zm6.845-.2a4.043,4.043,0,0,0,2.65.126,3.331,3.331,0,0,0,1.543-1.028,10.272,10.272,0,0,1,1.339-1.058A3.074,3.074,0,0,1,16.4,22.858a3.747,3.747,0,0,1-.872.1A4.667,4.667,0,0,1,13.3,22.334Zm-5.871.02c-.76-.468-.927-1.216-1.269-1.907a4.823,4.823,0,0,1,1.326,1A3.446,3.446,0,0,0,11.1,22.476a2.807,2.807,0,0,1,.564-.136,1.692,1.692,0,0,1-.918.42,4.911,4.911,0,0,1-1.283.183A3.793,3.793,0,0,1,7.431,22.354Zm-2.009-2.4a.972.972,0,0,1,.59.615,4.435,4.435,0,0,0,1.309,2,1.172,1.172,0,0,1,.128.179C6.024,22.3,5.865,21.072,5.422,19.952Zm13.633.419c.071-.2.246-.268.411-.361a3.132,3.132,0,0,1-1.979,2.706A4.731,4.731,0,0,0,19.055,20.371Zm-6.315,1.892c-.474-.037-.635,0-.641.164,0,.008.017.017.026.025-.421-.073-.205-.4-.248-.622s.108-.272.282-.312a1.363,1.363,0,0,1,.594-.015c.161.035.387.03.357.285s.163.567-.239.68C13.007,22.285,12.887,22.274,12.741,22.263Zm-5.068-.9c1.2.534,2.373,1.251,3.771.615a4.347,4.347,0,0,1-2.351-.193,8.9,8.9,0,0,0,2.364-.08c.122-.017.262-.047.291.139.023.146-.038.222-.18.278a4.2,4.2,0,0,1-1.547.325A3.126,3.126,0,0,1,7.672,21.362Zm6.71,1.031a6.681,6.681,0,0,1-.974-.277c-.163-.058-.167-.171-.149-.3.024-.166.156-.13.266-.119.4.039.8.087,1.2.119a9.17,9.17,0,0,0,1.2-.035,3.019,3.019,0,0,1-1.176.258,3.518,3.518,0,0,1-.6-.038,3.572,3.572,0,0,0-.592-.038,2.651,2.651,0,0,0,1.944.165c.651-.127,1.168-.61,1.81-.769a2.994,2.994,0,0,1-2.376,1.082A2.869,2.869,0,0,1,14.383,22.394ZM4.865,19.438a.944.944,0,0,1,.465.635,6.53,6.53,0,0,0,.975,2.181A3.2,3.2,0,0,1,4.865,19.438Zm15.193.041a2.964,2.964,0,0,1-1.36,2.753C19.411,21.442,19.426,20.313,20.058,19.479ZM9.3,21.64c-.037-.007-.072-.024-.109-.031-.762-.131-.762-.13-.913-.878-.056-.279-.112-.559-.188-.938.44.543,1.05.616,1.552.876L9.6,20.76c-.328-.136-.654-.277-.984-.407-.094-.037-.232-.138-.288.011-.043.114.084.192.194.235l.954.372a1.019,1.019,0,0,1-.549-.093,1.123,1.123,0,0,0-.619-.089,6.845,6.845,0,0,0,1.26.513c-.3-.03-.576-.179-.882-.18-.071,0-.165-.036-.185.067s.063.135.136.149c.232.046.467.082.7.123.061.011.144.019.137.095s-.052.089-.106.089A.4.4,0,0,1,9.3,21.64Zm6.21-.056a.654.654,0,0,1,.466-.189,2.455,2.455,0,0,0,.3-.026c.1-.021.233-.055.226-.163s-.088-.1-.165-.085a.413.413,0,0,1-.077.009c-.074,0-.148.007-.248.013.182-.165.466-.1.6-.358a.85.85,0,0,0-.548.089.979.979,0,0,1-.528.1c.351-.139.646-.254.941-.372.108-.043.239-.115.2-.234-.055-.152-.192-.049-.285-.013a9.213,9.213,0,0,1-1.007.361c.471-.314,1.077-.388,1.513-.9-.089.51-.167.949-.244,1.389a.329.329,0,0,1-.282.3,3.536,3.536,0,0,1-.636.1A1.051,1.051,0,0,1,15.509,21.583ZM4.172,18.733a1.445,1.445,0,0,1,.544,1A4.9,4.9,0,0,0,5.3,21.59,3.249,3.249,0,0,1,4.172,18.733Zm10,2.289a2.052,2.052,0,0,0-2.834-.609c-.079.049-.144.132-.251.118a1.016,1.016,0,0,1,.735-.453c1.392-.214,2.11.053,2.611,1.264a.22.22,0,0,1,0,.222A4.539,4.539,0,0,0,14.176,21.022Zm-3.11-.466c-.138.35-.45.614-.5,1.007A1.334,1.334,0,0,1,11.065,20.556ZM20.322,19.4c.009-.312.344-.426.485-.679.318.614-.3,2.24-1.083,2.837A6.427,6.427,0,0,0,20.322,19.4ZM12.584,20.57a1.327,1.327,0,0,1,1.258.879,1.585,1.585,0,0,0-2.695,0A1.366,1.366,0,0,1,12.584,20.57Zm-4.945-.522c-.067-.34-.117-.688-.614-.575-.02,0-.052-.048-.081-.072-.132-.109-.285-.212-.423-.041s.026.28.119.387.2.275.375.294c.242.026.115.23.2.317-.51-.042-1.021-.084-1.259-.635-.037,0-.074-.037-.111-.073-.074-.073-.151-.145-.246.068-.019.042-.237-.082-.3-.218.147-.042.351-.139.3-.251-.093-.2-.224-.477-.442-.515-.252-.045-.243-.089-.148-.276.028-.056-.035-.157-.056-.238.129.216.429.266.492.566.042.2.18.179.321.159a.378.378,0,0,1,.248.016.078.078,0,0,0,.1-.077.557.557,0,0,0-.28-.376,2.08,2.08,0,0,0-.422-.227c-.063-.027-.107-.035-.106-.116,0-.4-.154-.566-.55-.608a.823.823,0,0,0,.193.673c-.531-.148-.55-.2-.2-.673h0c0-.161.186-.3.067-.477A9.679,9.679,0,0,0,6.5,18.954a1.677,1.677,0,0,0,.728.357c.234.051.5.127.479.545a13.268,13.268,0,0,0,.177,1.358C7.8,20.826,7.715,20.438,7.639,20.048ZM6.37,20.017c.093.056.232.055.181-.1a1.751,1.751,0,0,0-.313-.707c-.109-.115-.276-.23-.43-.123-.134.094-.028.252.019.375a2.536,2.536,0,0,0,.131.259C6.094,19.82,6.224,19.93,6.37,20.017Zm10.894.043c-.012-.55.265-.7.737-.813a2.368,2.368,0,0,0,.978-.74c.221-.21.431-.433.645-.651l0,0c.1-.262.346-.409.493-.655l.2.431h0c.237.458.232.46-.275.6a1.307,1.307,0,0,0,.266-.606c-.113-.12-.226-.1-.349,0-.1.08-.212.15-.319.224.105.349-.125.481-.388.6a.9.9,0,0,0-.252.218c-.056.061-.14.131-.1.224s.086.063.139.047a.162.162,0,0,1,.084-.01c.311.09.464-.057.534-.332.038-.15.169-.168.277-.223-.05.138.13.169.14.312-.386-.052-.438.323-.65.5-.088.075.021.145.086.205a.176.176,0,0,0,.308-.054c.191-.4.659-.554.83-.967a.906.906,0,0,1-.384.707,8.888,8.888,0,0,1-.7.57c-.094.077-.172.213-.232-.04-.014-.058-.063-.029-.119,0a.207.207,0,0,1-.106.033,1.208,1.208,0,0,1-1.267.686c0-.2,0-.194.209-.312a1.015,1.015,0,0,0,.437-.454c.078-.174-.037-.363-.194-.271-.218.127-.468.071-.672.208-.246.166-.228.423-.279.661a6.768,6.768,0,0,1-.282,1.039A5.576,5.576,0,0,0,17.263,20.06Zm1.565-.9a1.676,1.676,0,0,0-.4.812c.047.12.142.089.213.037.155-.114.3-.242.451-.364.028-.066.06-.132.082-.2.037-.113.128-.24,0-.339a.168.168,0,0,0-.1-.035A.722.722,0,0,0,18.828,19.159Zm2.263.182.337.63c-.545.171-.53.828-.984,1.066A4.414,4.414,0,0,0,21.091,19.341ZM3.554,20l.343-.653a4.652,4.652,0,0,0,.58,1.571C4.036,20.746,4.112,20.081,3.554,20Zm7.522.528.009.011-.02.017Zm0,0,.014,0,0,.008Zm3.8-.209c.011-.428-.191-.625-.618-.6-.149.007-.188-.056-.2-.2a.483.483,0,0,0-.793-.325.2.2,0,0,1-.319-.018c-.311-.322-.573-.319-.911.012a.2.2,0,0,1-.295.018.49.49,0,0,0-.815.334c-.023.15-.079.186-.221.17a.521.521,0,0,0-.6.536c.026.3-.1.324-.329.232a7.1,7.1,0,0,1-1.818-.939A2.423,2.423,0,0,0,6.894,19a1.085,1.085,0,0,1-.59-.5c.28-.041,11.984-.054,12.412-.015a1.789,1.789,0,0,1-.81.574,3.733,3.733,0,0,0-1.282.759,5.85,5.85,0,0,1-1.56.7.173.173,0,0,1-.065.015C14.91,20.532,14.875,20.433,14.878,20.319Zm-.684-.277c.334-.282.356-.277.615.2C14.588,20.048,14.417,19.933,14.194,20.042Zm-3.478-.123c.2.108.268-.16.419-.234-.117.5-.674.183-.9.477C10.337,19.984,10.405,19.749,10.716,19.919Zm3.118-.268c-.044-.338-.174-.4-.44-.172-.163.137-.3.047-.455.014-.173-.038-.188-.163-.165-.3.214.344.308.357.632.094a.332.332,0,0,1,.5.234c.012.093-.018.192.068.289C13.839,19.8,13.844,19.726,13.834,19.652Zm7.975-.155h.005c-.436-.781-.714-1.639-1.157-2.41a.831.831,0,0,1,.146-1.12,4.482,4.482,0,0,0,.726-1.9,10.467,10.467,0,0,0,.293-2.427c.2.12.283.254.137.5a.53.53,0,0,0,.251.823c.049.026.068.112.148.068a.152.152,0,0,0,.072-.161c-.015-.19-.035-.381-.055-.6.273.143.167.368.2.55a.554.554,0,0,0,.371.47c.156.033.046-.2.1-.3.01-.018.031-.031.064-.061.353.248.161.664.3.972.591.167.17-.28.259-.438.144.18.4.323.1.575-.1.08-.206.189-.063.306s.213-.044.3-.118.1-.275.231-.165c.315.268.2-.114.3-.172.067.273-.193.428-.25.662a12.019,12.019,0,0,1-1.943,4.319c-.156.215-.109.525-.344.72a.23.23,0,0,1-.121.067C21.826,19.648,21.824,19.573,21.809,19.5Zm.012.01ZM20.673,16.35a.347.347,0,0,0-.023.413q.259.538.481,1.094a17.108,17.108,0,0,1,.686,1.638.426.426,0,0,0,.368-.519c-.011-.073-.054-.136.024-.2a5.775,5.775,0,0,0,.9-1.344,4.234,4.234,0,0,0,.712-1.837A12.6,12.6,0,0,1,23,17.229a16.794,16.794,0,0,0,.657-1.78c-.24.059-.214.232-.26.347a3.665,3.665,0,0,1-.985,1.647c-.074.059-.141.144-.07.221.1.106.2.03.3-.041a2.028,2.028,0,0,1-.436.4c-.087.069-.174.159-.1.284.017.028.1.009.132.037.054.053-.009.077-.048.1-.127.079-.223.087-.293-.08-.2-.48-.412-.956-.619-1.434-.151-.167-.173-.4-.292-.581h0c-.041-.073-.074-.184-.13-.2a.133.133,0,0,0-.03,0C20.73,16.151,20.727,16.285,20.673,16.35Zm1.107,1.188a.509.509,0,0,0,0,.222c.022.131.024.321.194.311s.177-.2.152-.329a2.2,2.2,0,0,1,.288-1.324c.133-.3.272-.6.408-.9l-.11-.063A10.55,10.55,0,0,0,21.78,17.538Zm.637-.845a1.083,1.083,0,0,0-.091.281c-.01.079-.022.187.091.217.094.025.119-.061.162-.121a7.144,7.144,0,0,0,.824-1.663l-.1-.051-.671,1.435c.054-.47.363-.853.442-1.312l-.1-.052C22.786,15.849,22.6,16.27,22.417,16.693Zm-.757.3c.151-.2.377-.377.3-.678-.014-.051-.073-.044-.126-.042-.443.016-.6.206-.543.669C21.4,17.044,21.5,17.2,21.661,16.991Zm-.28-1.538c-.3.105-.42.385-.387.9a.786.786,0,0,0,.6-.846c-.025-.065-.056-.084-.093-.084A.392.392,0,0,0,21.381,15.453Zm.877-.038a.94.94,0,0,0-.619.537c-.032.063-.114.116-.057.194s.134.021.2.007a1.275,1.275,0,0,1,.129-.019c.269.014.589-.456.515-.666-.02-.057-.046-.073-.078-.073A.444.444,0,0,0,22.258,15.415Zm-.479-.061c.058.085.2-.173.175-.238-.074-.2-.085-.546-.3-.536-.272.012-.178.388-.3.573.005.186.1.168.21.151a.591.591,0,0,1,.094-.01A.141.141,0,0,1,21.779,15.354Zm.256-1.256a.488.488,0,0,0-.162.433,4.657,4.657,0,0,0,.2.588c.077.163.169.093.225-.04a1.087,1.087,0,0,0,.017-.924c-.042-.09-.087-.131-.139-.131A.236.236,0,0,0,22.035,14.1Zm1.541.754c-.071.057-.157.146-.063.251s.184.021.254-.041a.948.948,0,0,0,.344-.6C23.952,14.576,23.757,14.706,23.576,14.852Zm-1-1.6c-.087.034-.066.125-.066.2A5.568,5.568,0,0,1,22.414,15c-.016.057-.008.126.091.132.026-.016.075-.03.084-.057.087-.275.309-.524.172-.842-.028-.065-.1-.106,0-.181.305-.237.3-.407,0-.7-.044-.042-.081-.107-.143-.107A.106.106,0,0,0,22.573,13.253Zm.659.464c-.114.032-.057.148-.068.228-.008.06.008.136-.023.177a.689.689,0,0,0-.126.806c.053.089.11.179.23.154.146-.031.113-.154.087-.242-.033-.114-.026-.162.1-.219.186-.084.163-.259.1-.422-.038-.1-.082-.2-.123-.3-.081-.032-.042-.191-.142-.191A.138.138,0,0,0,23.232,13.717Zm-1.441-.108c.053.084-.068.295.118.276a1.705,1.705,0,0,0,.516-.241c-.108-.2-.123-.55-.346-.566h-.023C21.816,13.076,21.829,13.387,21.791,13.609ZM3.046,19.615A.632.632,0,0,1,2.8,19.3a20.486,20.486,0,0,0-1.077-1.973,1.108,1.108,0,0,1-.138-.36,16.648,16.648,0,0,0,1.235,1.859c.024.023.012.095,0,.139-.082.305.111.432.338.538-.005.052.016.145-.035.145A.148.148,0,0,1,3.046,19.615Zm8.6-.115a.363.363,0,0,0-.485-.11c.172-.142.3-.282.493-.02.145.2.382.13.5-.063.172-.29.37-.277.611-.131-.226.024-.475-.059-.616.259a.347.347,0,0,1-.3.143A.275.275,0,0,1,11.643,19.5Zm-8.49,0V19.5l.012.012Zm0-.006.015-.007,0,.019Zm2.135,0,0,.005-.011,0Zm-.016-.008.016.008-.009.009Zm-1.8-.736c.291-.673.579-1.348.889-2.012a.46.46,0,0,0-.183-.583c-.135-.112-.083.147-.176.191-.288.642-.586,1.28-.859,1.928-.112.266-.234.282-.443.085.274-.034.3-.153.113-.315s-.359-.3-.539-.443l0,0a7.054,7.054,0,0,1-1.1-2.016,5.611,5.611,0,0,0,.383,1.329A7.346,7.346,0,0,1,.9,15.267a3.36,3.36,0,0,0-.375-1.082l.005,0A.873.873,0,0,1,.745,13.03c.8-.662,1.519-1.41,2.274-2.12A.933.933,0,0,0,3.4,10.29c0-.1.291-.427-.165-.312-.008,0-.031-.051-.046-.08C3,9.537,2.993,9.531,2.72,9.816h0c0,.355.142.829-.306.954-.354.1-.388.3-.5.553-.075.166-.282.274-.431.407a10.85,10.85,0,0,0,.565-2.449,2.115,2.115,0,0,0-.338.988,1.7,1.7,0,0,1-.5,1.114c-.093.195-.261.411.137.467-.112.166-.177.205-.334,0C.6,11.3.81,10.722.87,10.151c.04-.387.137-.768.166-1.16a6.018,6.018,0,0,0-.445,2.087,1.36,1.36,0,0,0,.226,1.1c.127.135-.053.192-.121.254a.592.592,0,0,0-.248.681c-.53-1.1.639-5.689,1.756-7.034.068.208-.084.34-.111.494a1.144,1.144,0,0,0-.076.438c.03.145.119.276.262.275.176,0,.144-.173.143-.291a1.42,1.42,0,0,0-.032-.482.348.348,0,0,1,.113-.43c-.082.1,0,.205.038.306.033.084.119.085.194.065.138-.038.15-.152.147-.269s.007-.221.133-.27a.274.274,0,0,1,.236-.14.247.247,0,0,0,.218-.3A1.626,1.626,0,0,1,4.19,4.038c.335-.293.678-.577,1.053-.9C4.721,3.13,3.423,4.495,3.081,5.353a.392.392,0,0,1,.042-.58A12.181,12.181,0,0,1,5.981,2.309l0,.005A10.342,10.342,0,0,1,9.08.941,11.732,11.732,0,0,1,12.191.414a11,11,0,0,1,2.986.336,13.283,13.283,0,0,1,3.6,1.387c.082.049.185.078.227.179A7.569,7.569,0,0,1,20.619,3.51a15.287,15.287,0,0,1,1.267,1.281.373.373,0,0,1,.033.548,5.135,5.135,0,0,0-2.1-2.236c.027.193.193.268.314.376.281.249.578.481.853.736a1.4,1.4,0,0,1,.533,1.147c-.016.23.028.412.326.443a.294.294,0,0,1,.255.355c-.012.144.016.282.2.3a.158.158,0,0,0,.186-.145c.018-.141.079-.3-.1-.4a.51.51,0,0,1-.2-.693c.017-.031.046-.088.055-.085.264.077.338.346.513.514.09.087.078.194-.049.232-.175.052-.125.132-.11.273a5.835,5.835,0,0,1-.035.815c0,.132-.029.322.161.314a.3.3,0,0,0,.249-.325,8.515,8.515,0,0,0-.194-.858,5.249,5.249,0,0,1,.827,1.473,10.894,10.894,0,0,1,.978,4.791.868.868,0,0,0,.055.435h0v0h0a5.026,5.026,0,0,1-.112,1.046.871.871,0,0,0-.192-.448c-.772-.743-1.533-1.5-2.3-2.245-.091-.088-.153-.231-.35-.226.04.227.078.444.117.66a.638.638,0,0,1-.179-.33c-.081-.613-.17-1.224-.248-1.837a6.612,6.612,0,0,0-.789-1.793c-.1-.235-.248-.453-.373-.679-.386-.366-.671-.819-1.064-1.18a9.305,9.305,0,0,0-7.226-2.688A9.171,9.171,0,0,0,4.118,8.134a12.576,12.576,0,0,0-.751,2.9,7.541,7.541,0,0,0,.375,4.048,2.719,2.719,0,0,0,.523.98c.207.259.38.484.136.9a25.436,25.436,0,0,0-1.1,2.331c-.034.074-.052.157-.132.2A3.3,3.3,0,0,1,3.472,18.751ZM2.218,15.622c.282.731.813,1.391.646,2.249a.071.071,0,0,0,.009.036c.028.068.044.154.129.169.115.021.142-.077.174-.156a.849.849,0,0,0-.041-.689c-.163-.363-.31-.735-.492-1.089a1.745,1.745,0,0,0-.408-.673C2.168,15.534,2.2,15.576,2.218,15.622Zm.151,2.016c.1.026.213.159.292.011.07-.131-.066-.2-.162-.248a.8.8,0,0,1-.3-.317,6.394,6.394,0,0,1-.609-1.313c-.044-.113-.023-.284-.231-.316a.7.7,0,0,0,.1.455A9.1,9.1,0,0,0,2.271,17.6.686.686,0,0,0,2.369,17.638ZM1.921,16.2c.151.292.18.65.475.865.064.047.089.175.2.114a.188.188,0,0,0,.067-.235c-.2-.509-.418-1.013-.63-1.518l-.114.053c.076.454.389.835.476,1.381a9.807,9.807,0,0,0-.782-1.492A3.66,3.66,0,0,0,1.921,16.2Zm1.1.283a1.276,1.276,0,0,0,.367.555c.1.1.177.05.249-.04a.409.409,0,0,0,.089-.415c-.087-.258-.315-.25-.525-.3a.287.287,0,0,0-.083-.014C3,16.274,2.986,16.378,3.018,16.487ZM3.41,15.5c-.131.281.256.837.584.844a2.935,2.935,0,0,0-.012-.4.541.541,0,0,0-.388-.5.361.361,0,0,0-.091-.018C3.467,15.426,3.436,15.442,3.41,15.5Zm-.006.56c-.067-.19-.168-.446-.394-.517-.138-.043-.288-.243-.426-.1-.113.117.039.273.073.413.07.29.242.37.465.288C3.27,16.15,3.479,16.267,3.4,16.055Zm-.358-.941c-.021.248.123.224.269.2a.655.655,0,0,1,.15-.013c.131.011.195,0,.161-.188-.124-.14-.006-.523-.284-.534H3.335C3.129,14.579,3.063,14.921,3.046,15.114ZM2.591,14.4a1.183,1.183,0,0,0,.118.717c.044.132.166.116.216,0,.085-.2.142-.42.2-.605,0-.247-.082-.458-.307-.476H2.8C2.613,14.035,2.631,14.265,2.591,14.4Zm-1.421.671a.193.193,0,0,0,.294.04c.1-.086.038-.188-.038-.252-.178-.15-.365-.288-.545-.427A1.488,1.488,0,0,0,1.17,15.074Zm1.191-1.812a.624.624,0,0,0-.35.457c-.022.142-.054.308.179.334.162.018.069.1.041.181a.89.89,0,0,0,.3.9c.114-.188-.044-.356-.04-.536.009-.381,0-.762-.008-1.142,0-.072.018-.206-.064-.206A.146.146,0,0,0,2.361,13.262Zm-.679,1.513c-.041.1-.1.232.03.293.145.069.226-.053.278-.171a1,1,0,0,0-.046-.785c-.113.17-.052.393-.216.529C1.712,14.686,1.7,14.731,1.682,14.775Zm-.25-.482c-.065.221.04.358.289.343a1.684,1.684,0,0,0,.021-.993A4.723,4.723,0,0,0,1.431,14.293Zm-.381-.011a.146.146,0,0,0,.223.064.152.152,0,0,0,0-.258c-.3-.235-.2-.426.059-.624.012.168-.207.407.019.461.271.063.251-.24.3-.42a.777.777,0,0,0,.008-.224.32.32,0,0,1,.229-.332c.122.1-.029.326.156.342.142.013.183-.184.285-.273.122-.106.083-.255.082-.388,0-.182.032-.331.233-.389-.032.2-.066.395-.092.59a.172.172,0,0,0,.083.193c.075.037.1-.046.15-.073A.506.506,0,0,0,3,12.137c-.052-.086-.159-.226.006-.359.268-.216.247-.54.3-.845-.18-.006-.236.126-.32.208-.707.692-1.388,1.411-2.121,2.075a.885.885,0,0,0-.328.966.436.436,0,0,1,.253-.109C.885,14.071.973,14.136,1.05,14.282Zm1.872-1.207c-.223.008-.243.364-.37.555a1.856,1.856,0,0,0,.506.254c.2.032.1-.173.135-.276-.029-.215-.006-.534-.26-.534Zm18.662-2.841a1.019,1.019,0,0,0,.4.691c.7.674,1.4,1.351,2.107,2.023.122.116.213.342.391.3.152-.036.026-.272.108-.4a.21.21,0,0,1,.053-.043c-.307-.3-.549-.55-.3-1.087a2.625,2.625,0,0,0-.05-1.618,3.012,3.012,0,0,0-.339-1.114c.058.516.162,1.023.227,1.536A1.7,1.7,0,0,1,24,11.818c-.159.228-.235.229-.379.031.275-.04.39-.146.176-.385h0a1.9,1.9,0,0,1-.553-1.306,1.2,1.2,0,0,0-.309-.874,9.178,9.178,0,0,0,.624,2.505c-.173-.162-.347-.324-.518-.488-.127-.122-.028-.289-.081-.426-.046-.118-.108-.072-.177-.026s-.146.093-.22-.028c-.146-.24-.53-.358-.294-.751.03-.051,0-.147-.02-.217a.288.288,0,0,0-.217-.234c-.163-.032-.16.121-.219.2-.032.046,0,.168-.06.145a.534.534,0,0,0-.167-.038C21.411,9.934,21.582,10.175,21.584,10.234Zm2.074.254c.013.093.01.224.114.265.224.088.158.235.108.39-.032.1-.052.2-.077.307.285-.03.288-.251.3-.461a5.656,5.656,0,0,0-.3-1.793c-.022-.076-.009-.183-.18-.172a7.032,7.032,0,0,1,.252,1.543c-.178-.494-.11-1.061-.464-1.5A12.226,12.226,0,0,1,23.658,10.488ZM.888,11.2c.037.179.1.314.316.19a2.183,2.183,0,0,1-.14-.677,8.061,8.061,0,0,1,.2-1.17.983.983,0,0,0,.057-.553A5.143,5.143,0,0,0,.888,11.2Zm.348-.077a3.59,3.59,0,0,0,.538-1.9C1.5,9.826,1.49,10.505,1.236,11.12Zm22.52-.014c-.271-.608-.246-1.3-.555-1.9A3.859,3.859,0,0,0,23.756,11.105Zm-22.58-.329a11.591,11.591,0,0,0,.4-1.741A4.142,4.142,0,0,0,1.176,10.777Zm.919-.617c.1.164-.029.492.239.544.173.034.3-.2.3-.4a.477.477,0,0,0-.35-.471.145.145,0,0,0-.035,0C2.124,9.832,2.1,10.012,2.094,10.16ZM22.7,9.838a.5.5,0,0,0-.333.508c.014.162.131.388.272.348.235-.065.224-.351.245-.567.011-.123-.013-.3-.137-.3A.168.168,0,0,0,22.7,9.838ZM2.5,9.027a.344.344,0,0,0-.253.4c.057.205.151.452.463.387a4.114,4.114,0,0,0,.011-.435c-.011-.147-.023-.358-.193-.358Zm19.982,0c-.2.015-.2.273-.225.458.022.14-.01.366.181.341a.386.386,0,0,0,.289-.39c-.011-.166-.065-.41-.232-.41ZM3.361,8.853a.5.5,0,0,0-.45.474c-.013.222.273.262.389.281.25.041.226-.222.266-.4-.03-.133.028-.355-.172-.355Zm18.057.3c.033.166-.005.423.24.458.119.017.37-.088.372-.265a.49.49,0,0,0-.388-.492.247.247,0,0,0-.053-.006C21.445,8.843,21.447,9.009,21.418,9.149Zm-.072-1.024a.984.984,0,0,0,.744.785c.11,0,.127-.076.114-.148a1.045,1.045,0,0,0-.492-.793.454.454,0,0,0-.2-.064C21.423,7.9,21.35,7.956,21.345,8.125ZM3.328,7.943a.988.988,0,0,0-.55.786c.006.085,0,.182.132.176a.951.951,0,0,0,.73-.747c0-.161-.055-.238-.175-.238A.484.484,0,0,0,3.328,7.943ZM1.29,8.407a.227.227,0,0,0,.143.274.21.21,0,0,0,.209-.048c.1-.078.075-.179.035-.273A1.428,1.428,0,0,1,1.561,7.8C1.251,7.9,1.329,8.184,1.29,8.407ZM23.3,8.433a.183.183,0,0,0,.151.251.174.174,0,0,0,.233-.17.818.818,0,0,0-.186-.725C23.423,8.037,23.355,8.233,23.3,8.433Zm-.944-.557c-.1.007-.1.071-.05.123.2.21.389.424.6.614.1.085.238.119.262-.082a.586.586,0,0,0-.007-.084,2.944,2.944,0,0,0-.8-.571ZM1.915,8.319a.2.2,0,0,0-.054.3c.095.128.208.027.28-.044.205-.2.4-.422.592-.635A1.93,1.93,0,0,0,1.915,8.319Zm20.375.067c-.039-.309-.133-.573-.529-.59ZM2.723,8.371l.565-.646A.6.6,0,0,0,2.723,8.371Zm20.354-1.5a4.645,4.645,0,0,1-.049.511,1.369,1.369,0,0,0-.065.589c.019.084.046.18.15.2s.139-.083.18-.158c.231-.423-.053-.772-.114-1.152ZM1.627,7.914c.042.136.1.284.268.245.138-.032.157-.185.144-.311C2,7.516,1.956,7.186,1.9,6.757a3.971,3.971,0,0,0-.329,1.037h0A.692.692,0,0,1,1.627,7.914ZM3.536,7.6c-.039.067-.081.172.017.182.231.024.116.249.276.373.144-.163.292-.314.419-.48.083-.107.1-.3-.048-.3-.056,0-.116-.005-.175-.005A.5.5,0,0,0,3.536,7.6Zm17.152-.051c.015.128.442.616.5.57.141-.114.142-.335.314-.4-.105-.369-.416-.3-.658-.357a.2.2,0,0,0-.042,0C20.7,7.35,20.676,7.443,20.688,7.546ZM2.268,7.474a.2.2,0,0,0-.079.291c.08.131.193.084.292.024A1.838,1.838,0,0,0,3.1,7.057C2.763,7.225,2.509,7.338,2.268,7.474ZM22.5,7.791c.114.053.247.115.32-.049.062-.14-.026-.245-.142-.306-.226-.118-.461-.221-.692-.33A1.142,1.142,0,0,0,22.5,7.791ZM3.657,7.14c-.24.066-.51.1-.606.458.265-.092.5-.06.645-.252.037-.049.094-.093.053-.16a.122.122,0,0,0-.083-.048Zm17.592.044c-.059.1.045.155.1.212.152.155.364.118.613.2a.639.639,0,0,0-.511-.43.534.534,0,0,0-.123-.027A.086.086,0,0,0,21.249,7.184Zm-.842-.055c.134.146.3.221.454.077s.028-.3-.071-.424a.9.9,0,0,0-.275-.243.383.383,0,0,0-.422,0c-.092.087.077.182.1.284.012.047.022.094.032.141A2.1,2.1,0,0,1,20.407,7.129ZM4.148,6.856c-.071.11-.164.247-.013.362a.293.293,0,0,0,.407-.044,1.676,1.676,0,0,0,.4-.635A.757.757,0,0,0,4.7,6.5.656.656,0,0,0,4.148,6.856ZM2.762,6.61c-.137.045-.27.169-.167.353s.245.057.359.011a1.239,1.239,0,0,0,.6-.721C3.271,6.352,3.038,6.519,2.762,6.61Zm19.319.383c.114.04.237.129.321-.033s-.016-.267-.143-.333c-.266-.139-.541-.262-.813-.392A1.083,1.083,0,0,0,22.082,6.994Zm-1.347-.637c-.061.017-.043.077-.029.126a1.247,1.247,0,0,0,.761.539c.068,0,.123-.011.15-.094a1.374,1.374,0,0,0-.462-.465.633.633,0,0,0-.323-.12A.349.349,0,0,0,20.735,6.357Zm-16.6-.008a1.159,1.159,0,0,0-.711.5c-.11.143,0,.161.112.157.369,0,.546-.273.734-.511.08-.1.022-.156-.079-.156A.331.331,0,0,0,4.137,6.349ZM3.9,6.179c.08.135.193.106.312.077a.4.4,0,0,1,.239-.009c.192.072.1-.147.139-.246-.043-.108.071-.29-.141-.322H4.439C4.3,5.677,3.847,6.091,3.9,6.179Zm16.958.07a1,1,0,0,0,.272.014c-.061-.279-.277-.391-.458-.532-.06-.047-.147-.1-.2-.03-.091.128-.036.287-.042.433,0,.055,0,.149.09.119a.449.449,0,0,1,.15-.024A1.294,1.294,0,0,1,20.856,6.249Zm.928-.007c.1.011.212,0,.246-.118a.142.142,0,0,0-.106-.173c-.313-.06-.621-.14-.931-.228A1.379,1.379,0,0,0,21.784,6.242Zm-18.558,0A1.421,1.421,0,0,0,4,5.725a3.752,3.752,0,0,1-.988.2C2.934,6.128,2.963,6.272,3.226,6.24Zm16.365-.959a.681.681,0,0,0,.121.559.746.746,0,0,0,.145.168c.1.089.19.256.329.187.11-.054.118-.23.136-.37-.008-.056-.016-.118-.027-.178a.5.5,0,0,0-.47-.406.78.78,0,0,0-.139-.025A.089.089,0,0,0,19.591,5.281ZM5.241,5.228a.593.593,0,0,0-.57.635c.079.091-.027.331.208.341.189.008.545-.527.554-.784,0-.126-.025-.193-.158-.193Zm.887-.305c-.118.257-.4.318-.583.5a.164.164,0,0,0,.2.259,1.169,1.169,0,0,0,.516-.674c-.008-.02-.011-.064-.035-.082a.1.1,0,0,0-.054-.012C6.149,4.913,6.131,4.916,6.128,4.923Zm12.6.105c0,.2.388.664.579.674.151.007.22-.1.162-.214-.135-.27-.52-.285-.615-.588C18.76,4.913,18.734,4.957,18.733,5.028ZM3.609,5.466c.039.2.207.132.334.088a3.008,3.008,0,0,0,1.063-.747,3.67,3.67,0,0,0,.747-.786c-.3.076-.434.389-.715.489-.317.352-.595.76-1.165.72H3.848C3.709,5.229,3.578,5.307,3.609,5.466Zm15.6-1.424c-.056.073.035.13.09.177.408.35.812.705,1.227,1.047a1.532,1.532,0,0,0,.633.318c.1.024.2.013.224-.123a.31.31,0,0,0-.342-.236.86.86,0,0,1-.7-.3q-.457-.418-.922-.827c-.04-.035-.087-.1-.14-.1A.1.1,0,0,0,19.21,4.043Zm.373-.665c.3.261.609.509.891.786.248.245.6.436.56.872a.13.13,0,0,0,.144.139.161.161,0,0,0,.152-.144.487.487,0,0,0-.186-.463c-.208-.2-.418-.4-.633-.588-.273-.243-.553-.479-.831-.717ZM5.261,3.313A15.968,15.968,0,0,0,3.789,4.636a.416.416,0,0,0-.114.412.154.154,0,0,0,.165.123.126.126,0,0,0,.125-.118c-.049-.484.357-.67.62-.948a7.519,7.519,0,0,0,.857-.815C5.328,3.3,5.284,3.295,5.261,3.313Zm15.65,1.75c-.049-.318-.361-.285-.449-.481-.428-.177-.684-.588-1.1-.786A3.818,3.818,0,0,0,20.911,5.063ZM19,4.6c0,.274.1.466.418.441.266,0,.36-.041.367-.164.009-.154-.41-.49-.61-.5h-.014C19,4.384,19,4.487,19,4.6ZM5.525,5.039c.348.041.464-.13.462-.414,0-.108.025-.235-.151-.242s-.633.325-.624.48c.01.173.124.171.222.17h.026A.272.272,0,0,1,5.525,5.039Zm-1.44-.005c.425-.032.625-.4.957-.534.126-.292.492-.392.619-.757-.458.237-.7.685-1.148.835C4.45,4.787,4.113,4.75,4.085,5.034Zm2.649-.621a.9.9,0,0,0-.462.327c-.018.032.128.218.24.23.281-.052.312-.235.332-.429.008-.074-.006-.14-.063-.14A.117.117,0,0,0,6.734,4.413Zm11.44.134c-.029.269.093.4.284.416.129.011.2-.149.286-.239a2.529,2.529,0,0,0-.488-.3.145.145,0,0,0-.047-.01C18.132,4.412,18.177,4.53,18.174,4.547Zm-13.9.1c.1.04.154-.063.237-.075.314-.386.767-.636,1.106-1.078A3.217,3.217,0,0,0,4.278,4.645Zm16.29-.039a.164.164,0,0,0,.2,0,5.14,5.14,0,0,0-1.336-1.094c.286.412.735.662,1.029,1.061h.013A.2.2,0,0,1,20.567,4.606Zm-.1-.02ZM17.405,4.2a.543.543,0,0,0,.415.325c.193.044.214-.163.222-.275.015-.212-.177-.194-.322-.213C17.587,4.049,17.371,4.04,17.405,4.2ZM6.9,4.248c0,.1.085.3.247.279a.528.528,0,0,0,.443-.338c.036-.138-.187-.146-.34-.154C7.115,4.067,6.895,4.027,6.9,4.248ZM6.092,4.2c0,.139,0,.31.211.248a.718.718,0,0,0,.473-.491.105.105,0,0,0-.063-.15A.2.2,0,0,0,6.641,3.8C6.435,3.8,6.1,4.03,6.092,4.2Zm12.254-.395c-.092,0-.132.032-.128.13.007.185.343.528.52.525s.153-.126.159-.236c0-.222-.252-.419-.536-.419Zm-1.515-.269a.23.23,0,0,0,.133.277c.142.065.272.2.448.154.154-.037.382-.069.407-.2.032-.163-.208-.17-.333-.232a1.7,1.7,0,0,0-.35-.1C16.993,3.448,16.87,3.425,16.831,3.539Zm-9.32,0c-.125.061-.376.081-.33.229s.283.234.471.2a.9.9,0,0,0,.4-.181c.06-.047.151-.15.113-.254s-.164-.085-.3-.1A1.831,1.831,0,0,0,7.51,3.537Zm8.89-.319c-.193.012-.5.007-.488.215.013.244.336.276.559.33.068.016.184.045.186-.1-.147-.113.108-.45-.223-.45Zm-7.989.317c-.038.1-.184.229.051.229.255,0,.557-.081.628-.313.058-.188-.241-.2-.4-.227a.748.748,0,0,0-.11-.009C8.41,3.214,8.3,3.293,8.411,3.535Zm-.857-.388a.812.812,0,0,0-.624.523c.229-.115.456-.233.687-.345.062-.03.118-.066.1-.134a.078.078,0,0,0-.083-.057A.275.275,0,0,0,7.555,3.147Zm9.769.045c-.039.068.019.108.079.139.219.111.436.225.655.338l.058-.075a1.182,1.182,0,0,0-.622-.43.283.283,0,0,0-.084-.016A.092.092,0,0,0,17.324,3.192ZM5.861,3.326c.017.225.232.23.412.187a1.691,1.691,0,0,0,.764-.387,3.758,3.758,0,0,1-.815-.04H6.212C6.059,3.087,5.846,3.132,5.861,3.326ZM18.672,3.5a.381.381,0,0,0,.42-.07c.054-.057.095-.127.027-.2a.469.469,0,0,0-.408-.153,2.4,2.4,0,0,1-.754.045A1.711,1.711,0,0,0,18.672,3.5Zm-3.615-.394c0,.2.254.308.439.336s.294-.183.478-.274a.75.75,0,0,0-.5-.241.634.634,0,0,0-.149-.018C15.187,2.912,15.057,2.963,15.057,3.108ZM9.641,2.921c-.215.023-.5.015-.569.241-.034.1.232.269.378.282.212.019.377-.153.517-.307a.283.283,0,0,0-.283-.219ZM7.861,3.2c.322-.024.554-.037.785-.059.071-.007.158-.022.157-.118a.184.184,0,0,0-.14-.158.709.709,0,0,0-.22-.038A.729.729,0,0,0,7.861,3.2ZM5.529,2.809a.219.219,0,0,0,.064.352c.139.067.241-.015.292-.15.065-.175.119-.355.191-.527.049-.118.008-.16-.1-.167A5.955,5.955,0,0,0,5.529,2.809Zm13.385-.343c.061.161.117.324.175.486.038.106.075.215.212.228a.148.148,0,0,0,.177-.1.323.323,0,0,0-.067-.344c-.137-.137-.27-.277-.4-.416C18.912,2.327,18.879,2.371,18.914,2.465Zm-2.485.365c-.114.011-.241.073-.233.2s.149.106.244.12.175.014.263.021c.272.018.343,0,.328-.07a.333.333,0,0,0-.27-.235.955.955,0,0,0-.267-.04C16.473,2.827,16.451,2.828,16.429,2.83Zm-6.2.335a1.344,1.344,0,0,0,.832-.223C10.786,3.032,10.448,2.878,10.228,3.166Zm4.539-.009c-.237-.265-.557-.146-.841-.205A1.321,1.321,0,0,0,14.767,3.157Zm-1.481-.151c.061,0,.125.007.159-.054.059-.106-.043-.154-.1-.212A1.624,1.624,0,0,1,12.9.688c.029-.057.068-.139,0-.158a1.993,1.993,0,0,0-.781-.012c-.1.014-.059.109-.016.177a1.242,1.242,0,0,1,.182.6,1.767,1.767,0,0,1-.607,1.427c-.061.059-.162.107-.13.206s.105.081.178.076l.051,0c.17,0,.339,0,.509,0h.243c.238,0,.476,0,.714,0h.006Zm4.57-.464c-.248.028-.494.064-.741.1a.915.915,0,0,0,.775.3c.134-.026.245-.1.227-.25-.014-.118-.1-.154-.2-.154A.5.5,0,0,0,17.856,2.541Zm-10.987.18c0,.148.142.227.3.224a1.73,1.73,0,0,0,.809-.257,7.286,7.286,0,0,0-.8-.136.385.385,0,0,0-.106-.015C6.967,2.537,6.866,2.583,6.869,2.722ZM18.4,2.673c.071.129.162.337.362.21.168-.106.051-.271-.022-.394a1.53,1.53,0,0,0-.662-.549C18.2,2.231,18.284,2.461,18.4,2.673ZM6.194,2.6c-.044.1-.08.222.055.294.117.063.189-.025.254-.1a5.78,5.78,0,0,0,.429-.858A1.334,1.334,0,0,0,6.194,2.6Zm9.573-.08c-.146.041-.4,0-.393.178.006.153.272.1.414.18.169-.063.46-.047.459-.22,0-.151-.184-.148-.344-.145-.035,0-.069,0-.1,0h0A.118.118,0,0,0,15.767,2.525Zm-1.461-.138c-.128.039-.363-.039-.383.176-.016.173.19.2.334.235a.832.832,0,0,0,.178.054c.128,0,.3.1.366-.067.053-.139-.11-.232-.2-.332a.233.233,0,0,0-.194-.069Zm-4.085.27c-.036.057-.072.133-.018.165a.567.567,0,0,0,.5-.017.345.345,0,0,1,.036-.01c.143-.038.344-.06.329-.238s-.232-.135-.366-.167a.451.451,0,0,0-.1-.012C10.423,2.378,10.318,2.508,10.221,2.658ZM8.746,2.64c-.043.211.209.1.294.2a.143.143,0,0,0,.105.029c.181-.015.448-.008.473-.179.021-.142-.253-.126-.4-.164-.036-.009-.073-.015-.126-.025C8.989,2.566,8.78,2.475,8.746,2.64ZM13.082,2.1c-.072.145.089.179.164.249a1.864,1.864,0,0,0,.2.165c.072.05.219.114.23.076.046-.149.2-.234.223-.371.017-.106-.133-.133-.222-.166a1.786,1.786,0,0,0-.265-.06C13.279,2.011,13.139,1.982,13.082,2.1Zm-1.5-.1c-.2.009-.441.013-.483.244-.018.1.142.261.258.34.081.055.569-.344.565-.456A.209.209,0,0,0,11.694,2C11.656,2,11.619,2,11.583,2Zm3.167.316c-.058.057-.024.118.03.155a.383.383,0,0,0,.48.043c.048-.034.121-.032.144-.1-.014-.124-.125-.1-.2-.121a.978.978,0,0,0-.256-.056A.268.268,0,0,0,14.75,2.317ZM9.606,2.4c-.024.12.192.171.316.175s.3-.025.331-.181-.125-.147-.275-.16C9.881,2.31,9.64,2.228,9.606,2.4Zm7.5-.272c-.309.128-.653.071-.969.206a1.433,1.433,0,0,0,.989.155.2.2,0,0,0,.165-.219.162.162,0,0,0-.148-.149A.1.1,0,0,0,17.1,2.129Zm-9.419.1c-.042.139.071.232.2.269a1.328,1.328,0,0,0,.965-.168c-.287-.132-.6-.049-.877-.182a.3.3,0,0,0-.127-.031A.157.157,0,0,0,7.684,2.224Zm9.93.077a.232.232,0,0,0,.332.065c.143-.1.056-.229-.015-.324a1.476,1.476,0,0,0-.9-.534C17.265,1.83,17.432,2.072,17.615,2.3ZM7.056,2.008c-.086.084-.194.183-.063.316A.24.24,0,0,0,7.384,2.3c.185-.227.347-.473.557-.764A1.56,1.56,0,0,0,7.056,2.008ZM11.049.679c-.455.085-.9.219-1.353.308-.532.105-.661.587-.99.875-.165.145-.056.287.128.31a1.716,1.716,0,0,0,.924-.1.462.462,0,0,0-.3-.132c-.235-.04-.254-.092-.119-.328a1.3,1.3,0,0,1,.976-.618c.5-.1,1-.188,1.5-.28l0-.106C11.557.628,11.3.632,11.049.679Zm2.09-.018c.1.136.221.092.325.107a8.488,8.488,0,0,1,1.721.372,1.038,1.038,0,0,1,.561.658c.061.156-.32.094-.455.226-.008.007-.007.023-.021.068a2.087,2.087,0,0,0,.832.092c.119-.006.235-.037.26-.17s-.072-.176-.169-.215c-.066-.026-.17-.017-.164-.118.027-.418-.327-.5-.589-.626A5.645,5.645,0,0,0,13.806.662a3.061,3.061,0,0,0-.421-.084A.4.4,0,0,0,13.139.661ZM13,1.785a2.346,2.346,0,0,0,.779.131,3.418,3.418,0,0,0,1.382.042c.107-.022.287-.048.25-.211s-.185-.094-.286-.054a3.646,3.646,0,0,1-1.557.117c-.118-.006-.23-.073-.369-.073A.439.439,0,0,0,13,1.785ZM9.59,1.748c-.037.168.152.2.282.218a8.406,8.406,0,0,0,2.057-.131v-.1a.98.98,0,0,0-.176,0A3.484,3.484,0,0,1,9.908,1.7a.684.684,0,0,0-.2-.056A.11.11,0,0,0,9.59,1.748Zm6.906.116a.279.279,0,0,0,.406.044c.171-.143,0-.242-.08-.336a1.4,1.4,0,0,0-.789-.431A8.312,8.312,0,0,0,16.5,1.864ZM8.1,1.655c-.046.06-.093.121-.054.2a.211.211,0,0,0,.22.107.417.417,0,0,0,.356-.234c.1-.177.191-.358.308-.58A1.427,1.427,0,0,0,8.1,1.655Zm2.13-.067c0,.121.138.125.238.116A4.811,4.811,0,0,0,12,1.4c-.513.035-1.025.068-1.538.107a.361.361,0,0,1-.078-.008.437.437,0,0,0-.07-.008C10.264,1.488,10.227,1.507,10.227,1.588ZM13,1.436a4.2,4.2,0,0,0,1.2.237c.149.01.3.024.449.023a.126.126,0,0,0,.127-.115c0-.058-.044-.084-.1-.081a6.527,6.527,0,0,1-.873-.03c-.222-.018-.445-.035-.668-.035ZM9.977,1.241c-.1.031-.27.051-.212.193s.213.1.322.024a2.511,2.511,0,0,1,.948-.333,5.017,5.017,0,0,0,.98-.162,2.362,2.362,0,0,0-.486-.049A5.179,5.179,0,0,0,9.977,1.241ZM12.953.934c.03.047.047.1.068.1a4,4,0,0,1,2.01.472.146.146,0,0,0,.2-.061c.055-.117-.053-.15-.131-.179A6.008,6.008,0,0,0,13.464.888C13.385.882,13.3.869,13.219.869A.51.51,0,0,0,12.953.934Zm-2.333.443a4.446,4.446,0,0,0,1.5-.19A2.861,2.861,0,0,0,11.8,1.17,3.83,3.83,0,0,0,10.621,1.377Zm2.249-.194a4.015,4.015,0,0,0,1.5.182,5.329,5.329,0,0,0-1.224-.2A2.339,2.339,0,0,0,12.87,1.183ZM4.36,18.329c.208.479.705.7.913,1.158C4.721,19.215,4.243,18.636,4.36,18.329Zm8.409.854h0l-.01-.006.018,0,0,0,0,0,0,.014Zm.263-.885H8.666c.385-.04.234-.511.511-.619-.058.1-.119.2,0,.289a.235.235,0,0,0,.277,0c.116-.094.086-.213-.011-.315.2.051.117.453.434.358a3.175,3.175,0,0,0,0-.364.617.617,0,0,0-.69-.622c-1.132,0-2.264,0-3.4-.006a.467.467,0,0,0-.08.01c-.087.015-.187.031-.184-.094s.115-.111.213-.1c.024,0,.047,0,.068,0,1.057,0,2.113,0,3.17,0h5.244c1.622,0,3.244,0,4.866,0,.029,0,.059,0,.09-.006.116-.012.24-.024.324.136a.406.406,0,0,1-.3.06c-.029,0-.058,0-.085,0-1.044,0-2.089.033-3.132-.008-.741-.029-1.092.394-.775,1.108l.269-.42c-.049.224.037.336.269.3.161-.027.162-.1.136-.178.22.542.745.445,1.226.442a.648.648,0,0,1,.264.037Zm-.068-.4c.016.114-.043.256.1.333a.7.7,0,0,0,.935-.4c.049-.145.053-.36.266-.358s.2.212.248.354h0c.087.094.184.17.21-.033a.718.718,0,0,0-.091-.548.71.71,0,0,0-.507-.231c-.73.011-1.461.01-2.191.009q-.542,0-1.084,0a.573.573,0,0,0-.608.631c0,.09-.05.228.094.244.1.011.12-.113.142-.192.036-.129.084-.248.238-.24s.2.137.237.256c.031.094.044.194.075.288.095.288.293.263.49.239a.8.8,0,0,1,.247-.006c.25.048.218-.145.254-.3.05-.224.015-.5.393-.536q.042,0,.079,0C12.83,17.4,12.923,17.6,12.965,17.9Zm1.864.032c0,.1-.144.224-.017.3a.3.3,0,0,0,.395-.1.794.794,0,0,1,0-1.066c-.425-.187-.5-.164-.565.191C14.948,17.406,14.829,17.684,14.829,17.928Zm-2.223.321c.127.015.268.029.267-.088,0-.179-.128-.152-.264-.125a.744.744,0,0,1-.155.02.477.477,0,0,1-.112-.022c-.11-.029-.236-.058-.238.124,0,.159.25.083.385.082h0A1.134,1.134,0,0,1,12.606,18.249ZM10.1,18.24a.564.564,0,0,1,.139-.007c-.064-.369-.185-.719.1-1.033.05-.055.01-.144-.071-.182s-.128-.2-.241-.088c-.079.074-.219.041-.266.159a.669.669,0,0,1,.125.917h0C9.831,18.277,9.957,18.259,10.1,18.24Zm2.418-.293a.194.194,0,0,1,.128-.019c.085,0,.171.01.173-.135,0-.2-.147-.254-.334-.252s-.3.069-.294.25c0,.148.093.145.189.142h.04A.265.265,0,0,1,12.514,17.947Zm1.643-.318c-.079.058-.124.192-.039.26.133.106.275.037.4-.059-.081-.073-.1-.262-.219-.262A.251.251,0,0,0,14.157,17.629Zm-3.609.127c-.016.13.056.179.189.174a.224.224,0,0,1,.058,0c.061,0,.128,0,.117-.105s-.043-.235-.178-.252l-.024,0C10.606,17.567,10.56,17.656,10.548,17.756Zm-4.095.307a1.319,1.319,0,0,1-.523-.032c.9-.1,1.221-.058,1.257.182A.945.945,0,0,0,6.454,18.062Zm12.465-.026a1.1,1.1,0,0,1-.459.027.769.769,0,0,0-.655.148C17.837,17.973,17.837,17.973,18.919,18.036Zm-3.055-.264c.006.015.012.031.017.046Q15.872,17.8,15.864,17.773Zm-.034-.113q.015.061.034.113A.382.382,0,0,1,15.83,17.659ZM4.74,16.4c-.2-.454-.658-.739-.806-1.234a8.924,8.924,0,0,1-.525-3.007c.033-.651.205-1.293.288-1.943A7.128,7.128,0,0,1,5.583,6.325a8.835,8.835,0,0,1,5.9-2.992,9.053,9.053,0,0,1,8.707,4,5.8,5.8,0,0,1,.95,2.024,8.909,8.909,0,0,1,.24,1.346,8.8,8.8,0,0,1,.193,2.1,8.859,8.859,0,0,1-.743,2.8c-.15.288-.467.436-.572.767a5.8,5.8,0,0,1-.391.8c-.1-.752-.639-.7-1.187-.686-.666.02-1.334.008-2,0a.522.522,0,0,1-.574-.519c.006-.049.007-.113.037-.14.155-.141.189-.246.14-.326-.751.007-2.17.012-3.8.012-1.606,0-3.01,0-3.768-.012-.037.074-.084.127,0,.182a.363.363,0,0,1,.138.493.673.673,0,0,1-.586.318c-.333-.009-.665-.006-1,0-.422,0-.845.007-1.267-.013s-.676.081-.753.51a1.108,1.108,0,0,1-.107.228C5,16.93,4.86,16.669,4.74,16.4Zm11.529-.91A.562.562,0,0,0,16,15.355c-.049-.014-.119-.029-.045-.074.294-.18.036-.2-.071-.259a.429.429,0,0,1-.252-.47,1.291,1.291,0,0,0-.037-.446c-.039-.156-.167-.3-.325-.2a.744.744,0,0,1-.475.1l-.1,0q-2.227.007-4.455,0h-.081a.67.67,0,0,1-.424-.089c-.161-.108-.285.014-.326.181a1.206,1.206,0,0,0-.052.407.484.484,0,0,1-.333.555c-.044.018-.134.042-.11.068.238.265-.082.261-.175.363.762-.007,2.157-.011,3.752-.011C14.1,15.479,15.514,15.484,16.27,15.491ZM10.617,11.38a1.457,1.457,0,0,0,.427.522c-.021-.7.111-1.245.97-1.2-.268-.252-.681-.223-.8-.47a2.278,2.278,0,0,1-.025-.883l-.079-.086a.891.891,0,0,1-1.435.464.331.331,0,0,0,.094.335.558.558,0,0,1-.044.9.487.487,0,0,0-.191.363,3.367,3.367,0,0,0,.5-.139.575.575,0,0,1,.235-.06C10.413,11.121,10.523,11.207,10.617,11.38Zm3.334.476.1-.011a3.426,3.426,0,0,0,.291-.466c.115-.268.279-.3.539-.21a1.287,1.287,0,0,0,.617.119A2.734,2.734,0,0,1,15,10.563c-.076-.28.3-.481.339-.874a.968.968,0,0,1-1.519-.363,1.963,1.963,0,0,0,0,.626c.048.229-.032.334-.243.423a1.46,1.46,0,0,0-.688.385,1.842,1.842,0,0,1,.273-.022C13.888,10.739,13.926,11.292,13.951,11.855ZM6.422,7.688c.928.224.843.815.592,1.528.377-.247.574-.608.861-.6a2.457,2.457,0,0,1,.853.388l.12,0c-.477-.628-.353-1.094.385-1.4a1.039,1.039,0,0,0-.58-.073.582.582,0,0,1-.448-.071,3.651,3.651,0,0,1-.548-.921c-.059.307-.106.5-.132.692-.035.262-.145.4-.439.369a2.077,2.077,0,0,0-.213-.015A1.035,1.035,0,0,0,6.422,7.688Zm11.55,1.5c-.259-.692-.329-1.264.547-1.483l-.091-.113a4.72,4.72,0,0,0-.508,0,.378.378,0,0,1-.479-.372,1.213,1.213,0,0,0-.217-.609c-.093.193-.18.343-.237.5-.109.306-.273.476-.637.392a.552.552,0,0,0-.492.057c.021.117.111.15.178.2.478.371.475.37.264.949-.031.085-.117.169-.044.3a2.548,2.548,0,0,1,.859-.395h.016C17.417,8.618,17.606,8.989,17.973,9.186ZM9.952,5.26a7.743,7.743,0,0,0,1.272,1.018.388.388,0,0,1,.183.546,6.5,6.5,0,0,0-.4,1.406c.407-.284.77-.508,1.1-.773a.538.538,0,0,1,.785,0c.33.267.695.493,1.044.737a6.9,6.9,0,0,0-.358-1.4.35.35,0,0,1,.166-.491c.451-.3.881-.632,1.319-.951a6.385,6.385,0,0,0-1.513-.081.447.447,0,0,1-.526-.387c-.145-.486-.315-.965-.474-1.447l-.1,0c-.155.458-.329.911-.458,1.377-.088.322-.217.485-.591.455-.192-.015-.384-.02-.577-.02C10.532,5.249,10.242,5.26,9.952,5.26ZM4.8,17.065l.01.014Zm-3.229-.111.008-.009q0,.01,0,.02Zm-.009-.035.017.026-.008.009Zm9.846-1.03c-.212.025-.236.194-.269.376-.124-.146-.094-.406-.36-.388-.244.017-.284.206-.34.425-.139-.157-.091-.45-.4-.422-.247.022-.225.227-.335.4-.037-.2-.037-.392-.274-.393-.216,0-.292.146-.334.349-.1-.37.044-.46.376-.458q3.017.019,6.033,0c.318,0,.49.065.381.471-.025-.235-.11-.359-.31-.363-.275-.006-.247.23-.324.453-.09-.2-.022-.477-.336-.462-.272.014-.232.252-.361.433-.058-.213-.092-.425-.34-.436s-.257.218-.338.441c-.071-.212-.066-.41-.293-.43-.286-.025-.256.248-.394.452-.094-.494-.392-.476-.688-.457a1.741,1.741,0,0,1-.247,0c-.279-.023-.4.147-.422.485C11.66,16.16,11.707,15.853,11.41,15.889Zm-1.825-.7v-.062H15.4l0,.062Zm.786-.963V14.2h4.294l-.012.028Zm14.159-.359.01.011-.006,0Zm0,0,0-.011.007.022ZM21.811,11.63h0l-.006-.033.018.021h0v.018ZM2.559,6.038h0v0l0,0h0c-.021.016-.04.033-.059.049A.255.255,0,0,1,2.559,6.038ZM2.207,5.76c.038-.247.276-.4.435-.592.073-.087.127-.015.166.056a.552.552,0,0,1-.236.716c-.017.01-.01.061-.014.095C2.464,5.907,2.178,5.95,2.207,5.76Z" transform="translate(14.158 19.662)" fill="#bbb" stroke="rgba(0,0,0,0)" stroke-width="1"/>
</svg>
