<svg id="组_49210" data-name="组 49210" xmlns="http://www.w3.org/2000/svg" width="24" height="24" viewBox="0 0 24 24">
  <rect id="矩形_3145" data-name="矩形 3145" width="24" height="24" fill="#fff" opacity="0"/>
  <g id="组_49209" data-name="组 49209" transform="translate(-1.5 -1.5)">
    <path id="直线_1" data-name="直线 1" d="M0,20.8a1,1,0,0,1-1-1V0A1,1,0,0,1,0-1,1,1,0,0,1,1,0V19.8A1,1,0,0,1,0,20.8Z" transform="translate(20.5 6.5) rotate(45)" fill="#fff"/>
    <path id="直线_2" data-name="直线 2" d="M19.8,1H0A1,1,0,0,1-1,0,1,1,0,0,1,0-1H19.8a1,1,0,0,1,1,1A1,1,0,0,1,19.8,1Z" transform="translate(6.5 6.5) rotate(45)" fill="#fff"/>
  </g>
</svg>
