<svg id="组_49359" data-name="组 49359" xmlns="http://www.w3.org/2000/svg" width="24" height="24" viewBox="0 0 24 24">
  <rect id="矩形_3041" data-name="矩形 3041" width="24" height="24" fill="#ddd" opacity="0"/>
  <path id="减去_43" data-name="减去 43" d="M2.5,12.958h0A2.99,2.99,0,0,1,0,10V3A3,3,0,0,1,3,0H9a3,3,0,0,1,3,3V6.5H10V3A1,1,0,0,0,9,2H3A1,1,0,0,0,2,3v7a1,1,0,0,0,.5.866v2.091Z" transform="translate(6 2)" fill="#ccc"/>
  <rect id="矩形_3299" data-name="矩形 3299" width="16" height="12" rx="2" transform="translate(4 10)" fill="#ccc"/>
  <path id="路径_483" data-name="路径 483" d="M5.064-17.136l2.156,3.83H5.761v.676H7.607l.011.011v.938H5.761V-11H7.618v1.658H8.9V-11h1.869v-.676H8.9v-.938l.011-.011h1.858v-.676H9.3l2.156-3.83H10l-1.736,3.35-1.736-3.35Z" transform="translate(3.936 29.309)" fill="#fff"/>
</svg>
