<svg id="组_49316" data-name="组 49316" xmlns="http://www.w3.org/2000/svg" width="24" height="24" viewBox="0 0 24 24">
  <rect id="矩形_3059" data-name="矩形 3059" width="24" height="24" fill="#ddd" opacity="0"/>
  <rect id="矩形_3260" data-name="矩形 3260" width="8" height="5" transform="translate(8 12)" fill="#505bde"/>
  <path id="减去_40" data-name="减去 40" d="M15.058,19.823a1.706,1.706,0,0,1,0-3.412,1.685,1.685,0,0,1,1.021.347,6.742,6.742,0,0,0,1.07-1.488,9.1,9.1,0,0,0,.793-2,1.423,1.423,0,0,1-.813-1.289V8.386a1.425,1.425,0,0,1,.684-1.219A8.173,8.173,0,0,0,2.083,7.111a1.429,1.429,0,0,1,.788,1.275v3.59a1.436,1.436,0,0,1-2.872,0V8.386a1.436,1.436,0,0,1,.871-1.32A9.449,9.449,0,0,1,4.153,2.013,9.244,9.244,0,0,1,9.941,0,9.364,9.364,0,0,1,19,7.025a1.429,1.429,0,0,1,1,1.362v3.59a1.427,1.427,0,0,1-1.117,1.4,9.115,9.115,0,0,1-2.145,4.067l-.087.081a1.694,1.694,0,0,1-1.594,2.3Zm-5.074-2.83a5.942,5.942,0,0,1-5.935-5.936V9.373a5.935,5.935,0,0,1,11.87,0v1.684A5.942,5.942,0,0,1,9.984,16.993ZM6.761,11.32a2.708,2.708,0,0,0,2.7,2.7h.9a2.708,2.708,0,0,0,2.7-2.7Z" transform="translate(2 1.999)" fill="#fff"/>
</svg>
