<svg id="组_49353" data-name="组 49353" xmlns="http://www.w3.org/2000/svg" width="100" height="65" viewBox="0 0 100 65">
  <g id="矩形_3295" data-name="矩形 3295" fill="#fff" stroke="#707070" stroke-width="1" opacity="0">
    <rect width="100" height="65" stroke="none"/>
    <rect x="0.5" y="0.5" width="99" height="64" fill="none"/>
  </g>
  <g id="组_49351" data-name="组 49351" transform="translate(-85 -205.102)">
    <g id="组_49347" data-name="组 49347" transform="translate(120.058 206.102)">
      <ellipse id="椭圆_79" data-name="椭圆 79" cx="17.796" cy="17.977" rx="17.796" ry="17.977" transform="translate(6.037)" fill="#ddd"/>
      <path id="路径_104" data-name="路径 104" d="M14.087,6.8c0,2.961-3.154,5.361-7.044,5.361S0,9.76,0,6.8Z" transform="translate(16.788 16.698)" fill="#fff"/>
      <path id="路径_102" data-name="路径 102" d="M18.159,0H29.508A18.159,18.159,0,0,1,47.667,18.159V23.97H0V18.159A18.159,18.159,0,0,1,18.159,0Z" transform="translate(0 38.951)" fill="#ddd"/>
    </g>
    <g id="组_49352" data-name="组 49352" transform="translate(94 231.252)">
      <g id="组_49349" data-name="组 49349" transform="translate(0 9.87)">
        <g id="矩形_3201" data-name="矩形 3201" transform="translate(0 0.001)" fill="#fff" stroke="#ccc" stroke-width="1">
          <rect width="41" height="25" rx="3" stroke="none"/>
          <rect x="0.5" y="0.5" width="40" height="24" rx="2.5" fill="none"/>
        </g>
        <g id="组_49348" data-name="组 49348" transform="translate(26.369 3.649)">
          <ellipse id="椭圆_79-2" data-name="椭圆 79" cx="3.737" cy="3.775" rx="3.737" ry="3.775" transform="translate(1.268)" fill="#ccc"/>
          <path id="路径_86" data-name="路径 86" d="M3.737,0A3.757,3.757,0,0,0,0,3.775C3.842,5.269,2.577,2.51,4.527,2.533c1.786.023,2.948,2.308,2.948,1.243A3.757,3.757,0,0,0,3.737,0Z" transform="translate(1.268)" fill="#ccc"/>
          <path id="路径_102-2" data-name="路径 102" d="M6.2,0H3.814A3.814,3.814,0,0,0,0,3.814v1.22H10.011V3.814A3.814,3.814,0,0,0,6.2,0Z" transform="translate(0 8.18)" fill="#ccc"/>
        </g>
        <rect id="矩形_3248" data-name="矩形 3248" width="16.556" height="1.155" rx="0.578" transform="translate(4 8.325)" fill="#ccc"/>
        <rect id="矩形_3289" data-name="矩形 3289" width="32.342" height="1.155" rx="0.578" transform="translate(4.037 19.916)" fill="#ccc"/>
        <rect id="矩形_3249" data-name="矩形 3249" width="9.934" height="1.155" rx="0.578" transform="translate(4 11.597)" fill="#ccc"/>
      </g>
      <path id="路径_103" data-name="路径 103" d="M21331,14607.515c0-4.152,4.9-7.519,10.945-7.519,2.379,0,5.375,1.07,7.68,8.4.715,2.906-.125,4.4-1.527,4.751a2.46,2.46,0,0,1-2.8-1.467c-.719,2.152-2.316,3.1-6.348,3.1C21332.906,14614.783,21331,14611.671,21331,14607.515Z" transform="translate(-21319.229 -14599.996)" fill="#ddd"/>
    </g>
  </g>
</svg>
