<svg id="组_49315" data-name="组 49315" xmlns="http://www.w3.org/2000/svg" width="24" height="24" viewBox="0 0 24 24">
  <rect id="矩形_3258" data-name="矩形 3258" width="24" height="24" fill="#fff" opacity="0"/>
  <circle id="椭圆_80" data-name="椭圆 80" cx="9" cy="9" r="9" transform="translate(3 3)" fill="#ccc"/>
  <path id="路径_89" data-name="路径 89" d="M6.641-8.548a2.528,2.528,0,0,1-.433,1.5A4.038,4.038,0,0,1,4.952-5.992a.955.955,0,0,0-.433.458,3.084,3.084,0,0,0-.028.572.551.551,0,0,1-.251.47,1,1,0,0,1-.586.165q-.809,0-.809-.623v-.737q0-.636.893-1.182a3.917,3.917,0,0,0,.879-.648,1.484,1.484,0,0,0,.363-1,1.375,1.375,0,0,0-.335-.941A1.2,1.2,0,0,0,3.7-9.857a1.385,1.385,0,0,0-1.367.979q-.363.839-.893.839-.8,0-.8-.826a2.11,2.11,0,0,1,.977-1.78,3.5,3.5,0,0,1,2.107-.636,2.955,2.955,0,0,1,2.135.763A2.607,2.607,0,0,1,6.641-8.548ZM5.162-2.127A.986.986,0,0,1,4.7-1.3,1.74,1.74,0,0,1,3.7-1a1.691,1.691,0,0,1-1-.318.979.979,0,0,1-.419-.814.962.962,0,0,1,.447-.814A1.614,1.614,0,0,1,3.7-3.246a1.754,1.754,0,0,1,1.019.318A.931.931,0,0,1,5.162-2.127Z" transform="translate(8.359 18.138)" fill="#fff"/>
</svg>
