<svg id="icon_collect_coins" xmlns="http://www.w3.org/2000/svg" width="50" height="50" viewBox="0 0 50 50">
  <rect id="矩形_1033" data-name="矩形 1033" width="50" height="50" fill="#505bde" opacity="0"/>
  <path id="联合_11" data-name="联合 11" d="M27.721,42.5V39.716H37.758a1.954,1.954,0,0,0,1.951-1.958V27.732H42.5V37.758A4.748,4.748,0,0,1,37.758,42.5ZM4.74,42.5A4.744,4.744,0,0,1,0,37.758V27.732H2.789V37.758A1.954,1.954,0,0,0,4.74,39.716H14.776V42.5ZM39.708,14.773V4.742a1.959,1.959,0,0,0-1.951-1.956H27.721V0H37.758A4.755,4.755,0,0,1,42.5,4.742V14.773ZM0,14.773V4.742A4.751,4.751,0,0,1,4.74,0H14.776V2.786H4.74A1.959,1.959,0,0,0,2.789,4.742V14.773Z" transform="translate(3.75 3.752)" fill="#505bde"/>
  <g id="qr-code" transform="translate(7.75 7.75)">
    <path id="路径_94" data-name="路径 94" d="M24.161,23.625h4.286a.536.536,0,0,1,.535.536v4.286a.536.536,0,0,1-.535.535H24.161a.536.536,0,0,1-.536-.535V24.161A.536.536,0,0,1,24.161,23.625Z" transform="translate(-1.018 -1.018)" fill="#505bde"/>
    <path id="路径_95" data-name="路径 95" d="M19.661,19.125h3.214a.536.536,0,0,1,.535.536v3.214a.536.536,0,0,1-.535.535H19.661a.536.536,0,0,1-.536-.535V19.661A.536.536,0,0,1,19.661,19.125Z" transform="translate(-0.804 -0.804)" fill="#505bde"/>
    <path id="路径_96" data-name="路径 96" d="M29.786,29.25H33a.536.536,0,0,1,.535.536V33a.536.536,0,0,1-.535.535H29.786A.536.536,0,0,1,29.25,33V29.786A.536.536,0,0,1,29.786,29.25Z" transform="translate(-1.286 -1.286)" fill="#505bde"/>
    <path id="路径_97" data-name="路径 97" d="M30.911,19.125h2.143a.536.536,0,0,1,.535.536V21.8a.536.536,0,0,1-.535.535H30.911a.536.536,0,0,1-.536-.535V19.661A.536.536,0,0,1,30.911,19.125Z" transform="translate(-1.339 -0.804)" fill="#505bde"/>
    <path id="路径_98" data-name="路径 98" d="M19.661,30.375H21.8a.536.536,0,0,1,.535.536v2.143a.536.536,0,0,1-.535.535H19.661a.536.536,0,0,1-.536-.535V30.911A.536.536,0,0,1,19.661,30.375Z" transform="translate(-0.804 -1.339)" fill="#505bde"/>
    <path id="路径_99" data-name="路径 99" d="M30.911,2.25H21.268a2.143,2.143,0,0,0-2.143,2.143v9.643a2.143,2.143,0,0,0,2.143,2.143h9.643a2.143,2.143,0,0,0,2.143-2.143V4.393A2.143,2.143,0,0,0,30.911,2.25Zm-2.143,9.108a.536.536,0,0,1-.536.536H23.946a.536.536,0,0,1-.536-.536V7.072a.536.536,0,0,1,.536-.536h4.286a.536.536,0,0,1,.536.536Z" transform="translate(-0.804)" fill="#505bde"/>
    <path id="路径_100" data-name="路径 100" d="M14.036,2.25H4.393A2.143,2.143,0,0,0,2.25,4.393v9.643a2.143,2.143,0,0,0,2.143,2.143h9.643a2.143,2.143,0,0,0,2.143-2.143V4.393A2.143,2.143,0,0,0,14.036,2.25Zm-2.143,9.108a.536.536,0,0,1-.536.536H7.071a.536.536,0,0,1-.536-.536V7.072a.536.536,0,0,1,.536-.536h4.286a.536.536,0,0,1,.536.536Z" transform="translate(0)" fill="#505bde"/>
    <path id="路径_101" data-name="路径 101" d="M14.036,19.125H4.393A2.143,2.143,0,0,0,2.25,21.268v9.643a2.143,2.143,0,0,0,2.143,2.143h9.643a2.143,2.143,0,0,0,2.143-2.143V21.268A2.143,2.143,0,0,0,14.036,19.125Zm-2.143,9.108a.536.536,0,0,1-.536.536H7.071a.536.536,0,0,1-.536-.536V23.947a.536.536,0,0,1,.536-.536h4.286a.536.536,0,0,1,.536.536Z" transform="translate(0 -0.804)" fill="#505bde"/>
  </g>
</svg>
