<svg id="usd" xmlns="http://www.w3.org/2000/svg" width="24" height="24" viewBox="0 0 24 24">
  <path id="路径_981" data-name="路径 981" d="M12,24A12,12,0,1,0,0,12,11.971,11.971,0,0,0,12,24Z" fill="#2775ca"/>
  <path id="路径_982" data-name="路径 982" d="M723.37,516.13c0-1.75-1.05-2.35-3.15-2.6-1.5-.2-1.8-.6-1.8-1.3s.5-1.15,1.5-1.15a1.48,1.48,0,0,1,1.65,1.05.376.376,0,0,0,.35.25h.8a.342.342,0,0,0,.35-.35v-.05a2.5,2.5,0,0,0-2.25-2.05v-1.2c0-.2-.15-.35-.4-.4h-.75c-.2,0-.35.15-.4.4v1.15a2.55,2.55,0,0,0-2.45,2.45c0,1.65,1,2.3,3.1,2.55,1.4.25,1.85.55,1.85,1.35s-.7,1.35-1.65,1.35c-1.3,0-1.75-.55-1.9-1.3a.365.365,0,0,0-.35-.3h-.85a.342.342,0,0,0-.35.35v.05a2.793,2.793,0,0,0,2.65,2.4v1.2c0,.2.15.35.4.4h.75c.2,0,.35-.15.4-.4v-1.2A2.739,2.739,0,0,0,723.37,516.13Z" transform="translate(-708.07 -502.23)" fill="#fff"/>
  <path id="路径_983" data-name="路径 983" d="M254.44,307.32a7.482,7.482,0,0,1,0-14.05.5.5,0,0,0,.3-.5v-.7a.38.38,0,0,0-.3-.4.3.3,0,0,0-.2.05,9,9,0,0,0,0,17.15.3.3,0,0,0,.45-.2c.05-.05.05-.1.05-.2v-.7A.666.666,0,0,0,254.44,307.32Zm5.3-15.6a.3.3,0,0,0-.45.2c-.05.05-.05.1-.05.2v.7a.663.663,0,0,0,.3.5,7.482,7.482,0,0,1,0,14.05.5.5,0,0,0-.3.5v.7a.38.38,0,0,0,.3.4.3.3,0,0,0,.2-.05,9.036,9.036,0,0,0,0-17.2Z" transform="translate(-244.99 -288.17)" fill="#fff"/>
</svg>
