<svg id="组_49409" data-name="组 49409" xmlns="http://www.w3.org/2000/svg" xmlns:xlink="http://www.w3.org/1999/xlink" width="80" height="80" viewBox="0 0 80 80">
  <defs>
    <linearGradient id="linear-gradient" x1="0.034" y1="0.057" x2="1" y2="1" gradientUnits="objectBoundingBox">
      <stop offset="0" stop-color="#5d5d5d"/>
      <stop offset="1" stop-color="#191919"/>
    </linearGradient>
  </defs>
  <rect id="矩形_3059" data-name="矩形 3059" width="80" height="80" fill="#505bde" opacity="0"/>
  <g id="矩形_3285" data-name="矩形 3285" transform="translate(12 6.897)" stroke="#333" stroke-width="1" fill="url(#linear-gradient)">
    <rect width="55.172" height="63.448" rx="3" stroke="none"/>
    <rect x="0.5" y="0.5" width="54.172" height="62.448" rx="2.5" fill="none"/>
  </g>
  <rect id="矩形_3116" data-name="矩形 3116" width="49.655" height="56.552" rx="0.5" transform="translate(15 11.034)" fill="#ddd"/>
  <rect id="矩形_3335" data-name="矩形 3335" width="19.31" height="8.276" rx="1" transform="translate(30 8.276)" fill="#333"/>
  <rect id="矩形_3331" data-name="矩形 3331" width="27.586" height="8.276" rx="1" transform="translate(26 5.517)" fill="#333"/>
  <rect id="矩形_3332" data-name="矩形 3332" width="38.621" height="2.759" rx="1.379" transform="translate(21.001 24.828)" fill="#333" opacity="0.712"/>
  <rect id="矩形_3333" data-name="矩形 3333" width="38.621" height="2.759" rx="1.379" transform="translate(21.001 35.862)" fill="#333" opacity="0.712"/>
  <rect id="矩形_3334" data-name="矩形 3334" width="17.931" height="2.759" rx="1.379" transform="translate(31 46.897)" fill="#333" opacity="0.712"/>
  <g id="组_49463" data-name="组 49463" transform="translate(73.006 32.962) rotate(45)">
    <path id="矩形_3405" data-name="矩形 3405" d="M2,0H6.383a2,2,0,0,1,2,2V26.546a0,0,0,0,1,0,0H0a0,0,0,0,1,0,0V2A2,2,0,0,1,2,0Z" transform="translate(0 0)" fill="#333"/>
    <path id="多边形_25" data-name="多边形 25" d="M4.192,0,8.383,8.383H0Z" transform="translate(8.383 34.928) rotate(180)" fill="#ccc"/>
    <path id="多边形_26" data-name="多边形 26" d="M2.1,0l2.1,4.192H0Z" transform="translate(6.287 34.928) rotate(180)" fill="#333"/>
  </g>
</svg>
