<svg id="组_49528" data-name="组 49528" xmlns="http://www.w3.org/2000/svg" width="60" height="60" viewBox="0 0 60 60">
  <rect id="矩形_3434" data-name="矩形 3434" width="60" height="60" fill="#fff" opacity="0"/>
  <path id="联合_130" data-name="联合 130" d="M5,58a5.006,5.006,0,0,1-5-5V24.333a5.006,5.006,0,0,1,5-5H6.444V9.666A9.677,9.677,0,0,1,16.11,0H35.445A9.677,9.677,0,0,1,45.11,9.666v9.667h1.445a5.006,5.006,0,0,1,5,5V53a5.006,5.006,0,0,1-5,5ZM22.556,35.444v9.667a3.222,3.222,0,1,0,6.444,0V35.444a3.222,3.222,0,0,0-6.444,0Zm16.11-16.111V9.666a3.225,3.225,0,0,0-3.221-3.222H16.11a3.226,3.226,0,0,0-3.222,3.222v9.667Z" transform="translate(4 1)" fill="#fff"/>
</svg>
