<svg id="组_49172" data-name="组 49172" xmlns="http://www.w3.org/2000/svg" width="20" height="20" viewBox="0 0 20 20">
  <path id="路径_65" data-name="路径 65" d="M10,0A10,10,0,1,1,0,10,10,10,0,0,1,10,0Z" fill="#63b72e"/>
  <path id="椭圆_51_-_轮廓" data-name="椭圆 51 - 轮廓" d="M10,1a9,9,0,1,0,9,9,9.01,9.01,0,0,0-9-9m0-1A10,10,0,1,1,0,10,10,10,0,0,1,10,0Z" fill="#4a9017"/>
  <path id="路径_51" data-name="路径 51" d="M-22836.619-22862.15h0a.753.753,0,0,1-.531-.221l-2.715-2.717a.75.75,0,0,1,0-1.061.75.75,0,0,1,1.061,0l2.184,2.186,4.908-4.906a.742.742,0,0,1,.529-.219.744.744,0,0,1,.531.221.75.75,0,0,1,0,1.061l-5.437,5.436A.746.746,0,0,1-22836.619-22862.15Z" transform="translate(22845.258 22876.336)" fill="#fff"/>
</svg>
