<svg id="icon_withdraw" xmlns="http://www.w3.org/2000/svg" width="24" height="24" viewBox="0 0 24 24">
  <rect id="矩形_1033" data-name="矩形 1033" width="24" height="24" fill="#fff" opacity="0"/>
  <path id="联合_11" data-name="联合 11" d="M13.307,20.4V19.064h4.817a.938.938,0,0,0,.936-.939V13.312H20.4v4.813A2.279,2.279,0,0,1,18.124,20.4Zm-11.032,0A2.276,2.276,0,0,1,0,18.125V13.312H1.339v4.813a.938.938,0,0,0,.936.939H7.093V20.4ZM19.06,7.092V2.276a.94.94,0,0,0-.936-.938H13.307V0h4.817A2.282,2.282,0,0,1,20.4,2.276V7.092ZM0,7.092V2.276A2.279,2.279,0,0,1,2.274,0H7.093V1.338H2.274a.94.94,0,0,0-.936.938V7.092Z" transform="translate(1.8 1.201)" fill="#fff"/>
  <path id="联合_169" data-name="联合 169" d="M12,3.6V1.2H1.2V3.6A.6.6,0,0,1,0,3.6V.6A.6.6,0,0,1,.6,0h12a.6.6,0,0,1,.6.6v3a.6.6,0,1,1-1.2,0Z" transform="translate(5.399 5.399)" fill="#fff"/>
  <path id="减去_123" data-name="减去 123" d="M8.4,9.6H0V0H8.4V9.6ZM2.747,5.721h0v.369H3.8v.84h.8v-.84H5.659V5.722H4.6V5.258l.007-.007H5.659V4.883H4.845L6.066,2.932h-.9L4.2,4.618,3.239,2.932h-.9L3.558,4.883H2.747v.368H3.793l.007.007v.464H2.747Z" transform="translate(7.8 7.801)" fill="#fff"/>
</svg>
