<svg id="icon_scan_code" xmlns="http://www.w3.org/2000/svg" width="50" height="50" viewBox="0 0 50 50">
  <rect id="矩形_1033" data-name="矩形 1033" width="50" height="50" fill="#505bde" opacity="0"/>
  <path id="联合_5" data-name="联合 5" d="M27.721,42.5V39.716H37.758a1.957,1.957,0,0,0,1.953-1.958V27.732H42.5V37.758A4.746,4.746,0,0,1,37.758,42.5Zm-22.979,0A4.748,4.748,0,0,1,0,37.758V27.732H2.792V37.758a1.954,1.954,0,0,0,1.951,1.958H14.779V42.5ZM39.711,14.773V4.745a1.96,1.96,0,0,0-1.953-1.958H27.721V0H37.758A4.753,4.753,0,0,1,42.5,4.745V14.773ZM0,14.773V4.745A4.755,4.755,0,0,1,4.742,0H14.779V2.786H4.742A1.958,1.958,0,0,0,2.792,4.745V14.773Z" transform="translate(3.75 3.752)" fill="#505bde" opacity="0.995"/>
  <rect id="矩形_1053" data-name="矩形 1053" width="27.5" height="2.5" rx="1.25" transform="translate(11.25 23.75)" fill="#505bde"/>
</svg>
