<svg id="组_49535" data-name="组 49535" xmlns="http://www.w3.org/2000/svg" width="24" height="24" viewBox="0 0 24 24">
  <rect id="矩形_1033" data-name="矩形 1033" width="24" height="24" fill="#fff" opacity="0"/>
  <path id="减去_119" data-name="减去 119" d="M24038.709,24579h-12.348a2.375,2.375,0,0,1-2.363-2.381v-15.236a2.375,2.375,0,0,1,2.363-2.381h12.348a2.375,2.375,0,0,1,2.363,2.381v15.236A2.375,2.375,0,0,1,24038.709,24579Zm-10.424-18v16h1V24561h-1Zm4.75,8a.75.75,0,1,0,0,1.5h1.5a.75.75,0,0,0,0-1.5Zm0-3a.75.75,0,1,0,0,1.5h4.5a.75.75,0,1,0,0-1.5Zm0-3a.75.75,0,1,0,0,1.5h4.5a.75.75,0,1,0,0-1.5Z" transform="translate(-24020.283 -24556.996)" fill="#505bde"/>
</svg>
