<svg id="icon_customer_service" xmlns="http://www.w3.org/2000/svg" width="50" height="50" viewBox="0 0 50 50">
  <rect id="矩形_3059" data-name="矩形 3059" width="50" height="50" fill="#505bde" opacity="0"/>
  <path id="路径_90" data-name="路径 90" d="M116.269,120.031a13.615,13.615,0,0,1-13.615-13.615v-3.508a13.615,13.615,0,0,1,27.23,0v3.508a13.615,13.615,0,0,1-13.615,13.615Zm0-28.238a11.127,11.127,0,0,0-11.115,11.115v3.508a11.115,11.115,0,1,0,22.23,0v-3.508A11.127,11.127,0,0,0,116.269,91.793Z" transform="translate(-91.303 -79.215)" fill="#505cde"/>
  <path id="路径_91" data-name="路径 91" d="M39.581,16.92a19.486,19.486,0,0,0-37.766.087A2.993,2.993,0,0,0,0,19.757v7.48a2.992,2.992,0,1,0,5.983,0v-7.48A2.981,2.981,0,0,0,4.34,17.1a17.026,17.026,0,0,1,32.769.118,2.978,2.978,0,0,0-1.425,2.537v7.48a2.98,2.98,0,0,0,1.694,2.685A18.957,18.957,0,0,1,35.727,34.1,14.058,14.058,0,0,1,33.5,37.2a3.538,3.538,0,0,0-5.68,2.831,3.555,3.555,0,1,0,6.875-1.239l.181-.17a18.918,18.918,0,0,0,4.47-8.472,2.99,2.99,0,0,0,2.325-2.911v-7.48A2.982,2.982,0,0,0,39.581,16.92Z" transform="translate(4.166 1.879)" fill="#505bde"/>
  <path id="矩形_3259" data-name="矩形 3259" d="M0,0H13.147a0,0,0,0,1,0,0V0A5.634,5.634,0,0,1,7.512,5.634H5.634A5.634,5.634,0,0,1,0,0V0A0,0,0,0,1,0,0Z" transform="translate(18.252 27.748)" fill="#505bde"/>
</svg>
