<svg id="组_49328" data-name="组 49328" xmlns="http://www.w3.org/2000/svg" width="24" height="24" viewBox="0 0 24 24">
  <g id="组_49323" data-name="组 49323">
    <rect id="矩形_3209" data-name="矩形 3209" width="24" height="24" fill="#505bde" opacity="0"/>
  </g>
  <g id="qr-code" transform="translate(0.75 0.75)">
    <path id="路径_94" data-name="路径 94" d="M23.947,23.625h2.571a.322.322,0,0,1,.321.322v2.571a.322.322,0,0,1-.321.321H23.947a.322.322,0,0,1-.322-.321V23.947A.322.322,0,0,1,23.947,23.625Z" transform="translate(-9.161 -9.161)" fill="#505bde"/>
    <path id="路径_95" data-name="路径 95" d="M19.447,19.125h1.929a.322.322,0,0,1,.321.322v1.929a.322.322,0,0,1-.321.321H19.447a.322.322,0,0,1-.322-.321V19.447A.322.322,0,0,1,19.447,19.125Z" transform="translate(-7.232 -7.232)" fill="#505bde"/>
    <path id="路径_96" data-name="路径 96" d="M29.572,29.25H31.5a.322.322,0,0,1,.321.322V31.5a.322.322,0,0,1-.321.321H29.572a.322.322,0,0,1-.322-.321V29.572A.322.322,0,0,1,29.572,29.25Z" transform="translate(-11.571 -11.571)" fill="#505bde"/>
    <path id="路径_97" data-name="路径 97" d="M30.7,19.125h1.286a.322.322,0,0,1,.321.322v1.286a.322.322,0,0,1-.321.321H30.7a.322.322,0,0,1-.322-.321V19.447A.322.322,0,0,1,30.7,19.125Z" transform="translate(-12.054 -7.232)" fill="#505bde"/>
    <path id="路径_98" data-name="路径 98" d="M19.447,30.375h1.286a.322.322,0,0,1,.321.322v1.286a.322.322,0,0,1-.321.321H19.447a.322.322,0,0,1-.322-.321V30.7A.322.322,0,0,1,19.447,30.375Z" transform="translate(-7.232 -12.054)" fill="#505bde"/>
    <path id="路径_99" data-name="路径 99" d="M26.2,2.25H20.411a1.286,1.286,0,0,0-1.286,1.286V9.321a1.286,1.286,0,0,0,1.286,1.286H26.2a1.286,1.286,0,0,0,1.286-1.286V3.536A1.286,1.286,0,0,0,26.2,2.25ZM24.911,7.715a.322.322,0,0,1-.322.322H22.018a.322.322,0,0,1-.322-.322V5.143a.322.322,0,0,1,.322-.322h2.571a.322.322,0,0,1,.322.322Z" transform="translate(-7.232)" fill="#505bde"/>
    <path id="路径_100" data-name="路径 100" d="M9.321,2.25H3.536A1.286,1.286,0,0,0,2.25,3.536V9.321a1.286,1.286,0,0,0,1.286,1.286H9.321a1.286,1.286,0,0,0,1.286-1.286V3.536A1.286,1.286,0,0,0,9.321,2.25ZM8.036,7.715a.322.322,0,0,1-.322.322H5.143a.322.322,0,0,1-.322-.322V5.143a.322.322,0,0,1,.322-.322H7.714a.322.322,0,0,1,.322.322Z" transform="translate(0)" fill="#505bde"/>
    <path id="路径_101" data-name="路径 101" d="M9.321,19.125H3.536A1.286,1.286,0,0,0,2.25,20.411V26.2a1.286,1.286,0,0,0,1.286,1.286H9.321A1.286,1.286,0,0,0,10.607,26.2V20.411A1.286,1.286,0,0,0,9.321,19.125ZM8.036,24.59a.322.322,0,0,1-.322.322H5.143a.322.322,0,0,1-.322-.322V22.018a.322.322,0,0,1,.322-.322H7.714a.322.322,0,0,1,.322.322Z" transform="translate(0 -7.232)" fill="#505bde"/>
  </g>
</svg>
