<svg id="icon_help" xmlns="http://www.w3.org/2000/svg" width="50" height="50" viewBox="0 0 50 50">
  <rect id="矩形_3258" data-name="矩形 3258" width="50" height="50" fill="#505bde" opacity="0"/>
  <path id="椭圆_80" data-name="椭圆 80" d="M21.25,2.5A18.75,18.75,0,0,0,7.992,34.508,18.75,18.75,0,1,0,34.508,7.992,18.627,18.627,0,0,0,21.25,2.5m0-2.5A21.25,21.25,0,1,1,0,21.25,21.25,21.25,0,0,1,21.25,0Z" transform="translate(3.75 3.75)" fill="#505cde"/>
  <path id="路径_89" data-name="路径 89" d="M13.141-5.586a5.267,5.267,0,0,1-.9,3.126,8.412,8.412,0,0,1-2.616,2.2,1.989,1.989,0,0,0-.9.954,6.425,6.425,0,0,0-.058,1.192,1.147,1.147,0,0,1-.523.98,2.084,2.084,0,0,1-1.221.344q-1.686,0-1.686-1.3V.373q0-1.324,1.86-2.463A8.16,8.16,0,0,0,8.926-3.441a3.093,3.093,0,0,0,.756-2.093,2.865,2.865,0,0,0-.7-1.96,2.505,2.505,0,0,0-1.977-.821,2.885,2.885,0,0,0-2.849,2.04Q3.4-4.527,2.3-4.527.641-4.527.641-6.249A4.4,4.4,0,0,1,2.676-9.957a7.289,7.289,0,0,1,4.39-1.324,6.156,6.156,0,0,1,4.448,1.589A5.431,5.431,0,0,1,13.141-5.586ZM10.059,7.79A2.054,2.054,0,0,1,9.1,9.512a3.624,3.624,0,0,1-2.093.636,3.523,3.523,0,0,1-2.093-.662,2.04,2.04,0,0,1-.872-1.7,2,2,0,0,1,.93-1.7,3.362,3.362,0,0,1,2.035-.636,3.653,3.653,0,0,1,2.122.662A1.939,1.939,0,0,1,10.059,7.79Z" transform="translate(18.109 25.566)" fill="#505bde"/>
</svg>
