<svg id="icon_recharge" xmlns="http://www.w3.org/2000/svg" width="24" height="24" viewBox="0 0 24 24">
  <rect id="矩形_1033" data-name="矩形 1033" width="24" height="24" fill="#fff" opacity="0"/>
  <path id="减去_19" data-name="减去 19" d="M5.4,10.8a5.4,5.4,0,1,1,5.4-5.4A5.406,5.406,0,0,1,5.4,10.8ZM3.532,6.586v.475H4.884v1.08H5.916V7.061h1.36V6.586H5.916v-.6l.008-.007H7.275V5.506H6.227L7.8,3H6.637L5.4,5.167,4.163,3H3L4.573,5.506H3.532v.475H4.876l.008.007v.6Z" transform="translate(6.6 6.6)" fill="#fff"/>
  <path id="联合_168" data-name="联合 168" d="M13.307,20.4V19.064h4.817a.938.938,0,0,0,.936-.939V13.312H20.4v4.813A2.279,2.279,0,0,1,18.124,20.4Zm-11.032,0A2.276,2.276,0,0,1,0,18.125V13.312H1.339v4.813a.938.938,0,0,0,.936.939H7.093V20.4ZM19.06,7.092V2.276a.94.94,0,0,0-.936-.938H13.307V0h4.817A2.282,2.282,0,0,1,20.4,2.276V7.092ZM0,7.092V2.276A2.279,2.279,0,0,1,2.274,0H7.093V1.338H2.274a.94.94,0,0,0-.936.938V7.092Z" transform="translate(1.8 1.801)" fill="#fff"/>
</svg>
