<svg id="组_49268" data-name="组 49268" xmlns="http://www.w3.org/2000/svg" width="24" height="24" viewBox="0 0 24 24">
  <circle id="椭圆_63" data-name="椭圆 63" cx="12" cy="12" r="12" fill="#f7931a"/>
  <path id="路径_71" data-name="路径 71" d="M19.431,12.015c.236-1.572-.962-2.417-2.6-2.981l.531-2.13-1.3-.322L15.55,8.655c-.34-.085-.69-.165-1.039-.245l.521-2.087L13.736,6l-.531,2.129c-.282-.064-.559-.127-.828-.195l0-.007-1.788-.446-.345,1.384s.962.22.942.234a.69.69,0,0,1,.6.755l-.6,2.426a1.153,1.153,0,0,1,.135.043l-.137-.034-.848,3.4A.473.473,0,0,1,9.743,16c.013.019-.942-.235-.942-.235l-.643,1.484,1.688.421c.314.079.621.161.923.239l-.536,2.154,1.3.323.531-2.13c.354.1.7.184,1.034.268l-.53,2.121,1.3.322.536-2.149c2.211.418,3.873.25,4.573-1.75a2.274,2.274,0,0,0-1.191-3.144,2.066,2.066,0,0,0,1.655-1.9Zm-2.963,4.154c-.4,1.61-3.111.74-3.99.521l.712-2.854C14.07,14.056,16.888,14.49,16.468,16.169Zm.4-4.177c-.365,1.465-2.621.72-3.352.538l.645-2.587c.731.182,3.089.522,2.708,2.05Z" transform="translate(-2.039 -1.5)" fill="#fff"/>
</svg>
