<svg id="组_49266" data-name="组 49266" xmlns="http://www.w3.org/2000/svg" width="24" height="24" viewBox="0 0 24 24">
  <circle id="椭圆_65" data-name="椭圆 65" cx="12" cy="12" r="12" fill="#26a17b"/>
  <path id="路径_78" data-name="路径 78" d="M15.017,14.992v0c-.083.006-.508.031-1.457.031-.758,0-1.291-.023-1.478-.031v0c-2.916-.128-5.092-.636-5.092-1.243s2.176-1.115,5.092-1.245v1.983c.191.014.737.046,1.491.046.905,0,1.359-.037,1.444-.045V12.506c2.91.13,5.081.638,5.081,1.243s-2.171,1.114-5.081,1.243m0-2.692V10.525h4.061V7.819H8.021v2.706h4.061V12.3c-3.3.151-5.782.806-5.782,1.589s2.482,1.436,5.782,1.589v5.687h2.935V15.474c3.295-.151,5.771-.8,5.771-1.587s-2.476-1.436-5.771-1.588" transform="translate(-1.574 -1.955)" fill="#fff" fill-rule="evenodd"/>
</svg>
