<svg id="组_49346" data-name="组 49346" xmlns="http://www.w3.org/2000/svg" width="60" height="60" viewBox="0 0 60 60">
  <rect id="矩形_3127" data-name="矩形 3127" width="60" height="60" fill="#fff" opacity="0"/>
  <g id="组_49345" data-name="组 49345" transform="translate(5 5)">
    <g id="椭圆_51" data-name="椭圆 51" fill="#63b72e" stroke="#4a9017" stroke-width="1">
      <circle cx="25" cy="25" r="25" stroke="none"/>
      <circle cx="25" cy="25" r="24.5" fill="none"/>
    </g>
    <path id="路径_51" data-name="路径 51" d="M-22831.424-22851.748h0a1.884,1.884,0,0,1-1.328-.547l-6.783-6.8a1.869,1.869,0,0,1,0-2.648,1.873,1.873,0,0,1,2.656.006l5.455,5.463,12.271-12.266a1.86,1.86,0,0,1,1.322-.547,1.852,1.852,0,0,1,1.328.553,1.873,1.873,0,0,1,0,2.65l-13.594,13.586A1.87,1.87,0,0,1-22831.424-22851.748Z" transform="translate(22853.02 22887.209)" fill="#fff"/>
  </g>
  <path id="椭圆_51-2" data-name="椭圆 51" d="M24,2a22.006,22.006,0,0,0-8.563,42.272A22.006,22.006,0,0,0,32.563,3.728,21.86,21.86,0,0,0,24,2m0-2A24,24,0,1,1,0,24,24,24,0,0,1,24,0Z" transform="translate(6 6)" fill="#fff"/>
</svg>
