<svg xmlns="http://www.w3.org/2000/svg" width="50" height="50" viewBox="0 0 50 50">
  <g id="icon_order" transform="translate(3.75 5.004)">
    <path id="减去_16" data-name="减去 16" d="M23.068,40H3.753A3.759,3.759,0,0,1,0,36.245V3.753A3.759,3.759,0,0,1,3.753,0h27.5A3.754,3.754,0,0,1,35,3.753V20.94a11.875,11.875,0,0,0-2.5-.312V3.753a1.255,1.255,0,0,0-1.247-1.258H3.753A1.258,1.258,0,0,0,2.5,3.753V36.245A1.256,1.256,0,0,0,3.753,37.5H21.505a11.8,11.8,0,0,0,1.563,2.495Z" fill="#505bde"/>
    <path id="矩形_1063" data-name="矩形 1063" d="M1.25,0h20a1.25,1.25,0,0,1,0,2.5h-20a1.25,1.25,0,0,1,0-2.5Z" transform="translate(6.25 7.498)" fill="#505bde"/>
    <path id="减去_17" data-name="减去 17" d="M10,20A10,10,0,1,1,20,10,10.013,10.013,0,0,1,10,20ZM5.365,8.516a1.25,1.25,0,0,0-.888,2.13l3.255,3.245a1.228,1.228,0,0,0,.88.37,1.211,1.211,0,0,0,.885-.37l6.026-6.023A1.251,1.251,0,0,0,13.75,6.1L8.612,11.24,6.253,8.883A1.247,1.247,0,0,0,5.365,8.516Z" transform="translate(22.275 22.5)" fill="#505bde"/>
    <path id="矩形_1064" data-name="矩形 1064" d="M1.25,0h17.5a1.25,1.25,0,0,1,0,2.5H1.25a1.25,1.25,0,0,1,0-2.5Z" transform="translate(6.25 14.998)" fill="#505bde"/>
    <path id="矩形_1065" data-name="矩形 1065" d="M1.25,0h10a1.25,1.25,0,0,1,0,2.5h-10a1.25,1.25,0,0,1,0-2.5Z" transform="translate(6.25 22.498)" fill="#505bde"/>
    <rect id="矩形_1033" data-name="矩形 1033" width="50" height="50" transform="translate(-3.75 -5.004)" fill="#505bde" opacity="0"/>
  </g>
</svg>
