<svg id="TRX" xmlns="http://www.w3.org/2000/svg" width="24" height="24" viewBox="0 0 24 24">
  <circle id="椭圆_74" data-name="椭圆 74" cx="12" cy="12" r="12"/>
  <path id="路径_88" data-name="路径 88" d="M20.559,10.949c-.6-.425-1.24-.879-1.868-1.329-.014-.01-.028-.021-.045-.031a.84.84,0,0,0-.246-.14l-.007,0c-1.677-.411-3.382-.833-5.032-1.241L8.873,7.1l-.118-.031a1.139,1.139,0,0,0-.457-.06.316.316,0,0,0-.128.049l-.042.035a.517.517,0,0,0-.118.19L8,7.308v.161l.007.025c.945,2.689,1.916,5.417,2.852,8.056.721,2.033,1.47,4.137,2.2,6.2a.367.367,0,0,0,.333.246h.035a.389.389,0,0,0,.346-.194l2.745-4.06q1-1.482,2.006-2.966l.821-1.216c.45-.668.915-1.357,1.376-2.028l.024-.034v-.043a.536.536,0,0,0-.187-.51m-3.216,1.481c-.645.34-1.3.692-1.965,1.04l1.158-1.259c.482-.527.984-1.073,1.476-1.607l.01-.01a1.562,1.562,0,0,1,.149-.165c.037-.038.08-.077.118-.123.256.18.516.362.766.542q.27.195.551.39-1.136.588-2.263,1.192m-1.656-.169c-.5.545-1.009,1.1-1.518,1.655q-1.482-1.824-2.974-3.641L9.861,8.647l0,0c-.1-.116-.2-.242-.295-.362-.062-.081-.128-.158-.194-.239.4.105.808.2,1.206.3.35.085.714.172,1.071.264l6.034,1.487c-.669.724-1.342,1.459-1.993,2.169m-1.744,6.851c.038-.369.08-.749.115-1.121.031-.3.062-.6.094-.9.048-.468.1-.952.143-1.427l.01-.084c.034-.3.069-.615.09-.929a1.035,1.035,0,0,1,.125-.06,1.485,1.485,0,0,0,.155-.076q1.2-.639,2.405-1.273c.8-.422,1.622-.858,2.437-1.29q-1.108,1.628-2.208,3.262c-.62.917-1.258,1.862-1.892,2.794-.249.373-.509.752-.755,1.118-.278.408-.562.826-.838,1.245.034-.422.076-.847.121-1.262M9.113,8.872c-.045-.127-.095-.256-.136-.379.936,1.146,1.878,2.3,2.8,3.416.475.58.95,1.156,1.424,1.74.094.109.188.225.277.337.118.144.236.3.364.44-.042.361-.076.727-.115,1.078-.024.246-.048.493-.076.742v0c-.01.157-.031.316-.049.471l-.079.7,0,.024c-.062.71-.139,1.427-.211,2.123-.031.288-.059.583-.09.879-.017-.052-.037-.106-.056-.155q-.079-.215-.152-.432l-.371-1.044L9.112,8.872" transform="translate(-2 -1.75)" fill="#fff"/>
</svg>
