<svg id="组_49188" data-name="组 49188" xmlns="http://www.w3.org/2000/svg" width="24" height="24" viewBox="0 0 24 24">
  <rect id="矩形_1033" data-name="矩形 1033" width="24" height="24" fill="#505bde" opacity="0"/>
  <path id="矩形_3088" data-name="矩形 3088" d="M1,0A1,1,0,0,0,0,1V17a1,1,0,0,0,1,1H14a1,1,0,0,0,1-1V1a1,1,0,0,0-1-1H1M1-1H14a2,2,0,0,1,2,2V17a2,2,0,0,1-2,2H1a2,2,0,0,1-2-2V1A2,2,0,0,1,1-1Z" transform="translate(3 3)" fill="#505bde"/>
  <rect id="矩形_3089" data-name="矩形 3089" width="11" height="1" rx="0.5" transform="translate(5 6)" fill="#505bde"/>
  <rect id="矩形_3090" data-name="矩形 3090" width="11" height="1" rx="0.5" transform="translate(5 9)" fill="#505bde"/>
  <rect id="矩形_3091" data-name="矩形 3091" width="7" height="1" rx="0.5" transform="translate(5 12)" fill="#505bde"/>
  <circle id="椭圆_41" data-name="椭圆 41" cx="5" cy="5" r="5" transform="translate(12 13)" fill="#fff"/>
  <path id="减去_38" data-name="减去 38" d="M23322,23260a5,5,0,1,1,5-5A5.007,5.007,0,0,1,23322,23260Zm-.5-8a.5.5,0,0,0-.5.5v3.5a.5.5,0,0,0,.5.5h3a.5.5,0,0,0,0-1H23322v-3A.5.5,0,0,0,23321.5,23252Z" transform="translate(-23305 -23237)" fill="#505bde"/>
</svg>
