<svg id="组_49566" data-name="组 49566" xmlns="http://www.w3.org/2000/svg" xmlns:xlink="http://www.w3.org/1999/xlink" width="24" height="24" viewBox="0 0 24 24">
  <defs>
    <clipPath id="clip-path">
      <rect id="Rectangle_23" data-name="Rectangle 23" width="18" height="18" transform="translate(0 0)" fill="#fff"/>
    </clipPath>
  </defs>
  <path id="路径_855" data-name="路径 855" d="M12,0A12,12,0,1,1,0,12,12,12,0,0,1,12,0Z" fill="#f0b90b" fill-rule="evenodd"/>
  <g id="bnb" transform="translate(-3599 -269)">
    <g id="bnb-2" data-name="bnb" transform="translate(3602 271.999)" clip-path="url(#clip-path)">
      <g id="chain-smart-h" transform="translate(0.104 0.031)">
        <path id="Path_87" data-name="Path 87" d="M25.4,9H22.082V2.03h3.245c1.429,0,2.3.714,2.3,1.8v.014a1.6,1.6,0,0,1-.915,1.5,1.708,1.708,0,0,1,1.3,1.715v.016C28.014,8.376,26.985,9,25.4,9Zm.7-4.916c0-.457-.357-.714-1-.714H23.583V4.846H25c.672,0,1.1-.214,1.1-.743Zm.385,2.8c0-.472-.343-.758-1.129-.758H23.583V7.661h1.829c.672,0,1.086-.243,1.086-.758V6.89ZM29.7,9V2.03h1.529V9Zm8.476,0L34.8,4.574V9H33.288V2.03H34.7l3.273,4.3V2.03h1.515V9Zm8.2,0-.643-1.558H42.792L42.149,9H40.591l2.987-7.032h1.415L47.981,9ZM44.264,3.83l-.929,2.258h1.858ZM54,9,50.625,4.574V9H49.11V2.03h1.414l3.274,4.3V2.03h1.515V9Zm6.36.128a3.516,3.516,0,0,1-3.573-3.588V5.531a3.544,3.544,0,0,1,3.646-3.6A3.608,3.608,0,0,1,63.174,3L62.2,4.131a2.594,2.594,0,0,0-1.787-.786,2.072,2.072,0,0,0-2.03,2.172v.014a2.066,2.066,0,0,0,2.03,2.187A2.485,2.485,0,0,0,62.245,6.9l.972.986a3.569,3.569,0,0,1-2.859,1.244ZM64.46,9V2.03h5.26V3.4h-3.73V4.817h3.287V6.189H65.99V7.661h3.786V9.033H64.46ZM2.03,6.975,0,9l2.03,2.03L4.059,9ZM9,4.074l3.487,3.487,2.03-2.03L9,0,3.487,5.517l2.03,2.03Zm6.975,2.9L13.95,9l2.03,2.03L18.009,9ZM9,13.95,5.517,10.462l-2.03,2.03L9,18.009l5.517-5.517-2.03-2.03Zm0-2.917L11.034,9,9,6.973,6.975,9Z" fill="#fff"/>
        <path id="Path_88" data-name="Path 88" d="M152.308,79.244c0-.322.288-.576.782-.576a2.181,2.181,0,0,1,1.3.494l.453-.638a2.662,2.662,0,0,0-1.743-.6,1.466,1.466,0,0,0-1.64,1.4c0,.892.576,1.194,1.6,1.441.892.206,1.084.391,1.084.741,0,.371-.329.61-.851.61a2.212,2.212,0,0,1-1.516-.624l-.508.6a2.958,2.958,0,0,0,2,.768c1.009,0,1.715-.535,1.715-1.441,0-.8-.528-1.166-1.544-1.413C152.527,79.786,152.308,79.62,152.308,79.244Z" transform="translate(-129.651 -66.782)" fill="#fff"/>
        <path id="Path_89" data-name="Path 89" d="M187.143,79.758V83.2h.844V78.4h-.9l-1.461,2.271-1.46-2.271h-.9v4.8h.83v-3.43l1.5,2.25h.027Z" transform="translate(-157.073 -67.194)" fill="#fff"/>
        <path id="Path_90" data-name="Path 90" d="M224,78.16h-.782L221.1,83h.864l.494-1.159h2.273L225.218,83h.892Zm.425,2.93h-1.654l.823-1.921Z" transform="translate(-189.499 -66.989)" fill="#fff"/>
        <path id="Path_91" data-name="Path 91" d="M265.019,83.2l-1.3-1.818a1.438,1.438,0,0,0,1.146-1.461c0-.94-.679-1.523-1.784-1.523h-2.141v4.8h.844V81.528h1.055l1.179,1.674ZM264.01,79.97c0,.494-.384.81-.988.81h-1.235V79.168h1.228c.624,0,.995.274.995.8Z" transform="translate(-223.648 -67.194)" fill="#fff"/>
        <path id="Path_92" data-name="Path 92" d="M294.5,79.182h1.523V78.4h-3.9v.782h1.523V83.2h.851Z" transform="translate(-250.377 -67.194)" fill="#fff"/>
        <path id="Path_93" data-name="Path 93" d="M340.977,81.936l-.542-.549a1.883,1.883,0,0,1-1.379.624,1.713,1.713,0,0,1,0-3.417,1.91,1.91,0,0,1,1.345.6l.542-.624a2.519,2.519,0,1,0-1.914,4.218A2.478,2.478,0,0,0,340.977,81.936Z" transform="translate(-288.472 -66.696)" fill="#fff"/>
        <path id="Path_94" data-name="Path 94" d="M375.736,81.179V83.2h.844V78.4h-.844v2h-2.291v-2H372.6v4.8h.844V81.179Z" transform="translate(-319.345 -67.194)" fill="#fff"/>
        <path id="Path_95" data-name="Path 95" d="M408.127,78.16h-.782L405.232,83h.864l.494-1.159h2.271L409.348,83h.892Zm.425,2.929H406.9l.823-1.921Z" transform="translate(-347.313 -66.989)" fill="#fff"/>
        <path id="Path_96" data-name="Path 96" d="M445.41,78.4v4.8h.844V78.4Z" transform="translate(-381.748 -67.194)" fill="#fff"/>
        <path id="Path_97" data-name="Path 97" d="M462.7,81.721,460.13,78.4h-.782v4.8h.83V79.786l2.648,3.417h.707V78.4h-.83Z" transform="translate(-393.694 -67.194)" fill="#fff"/>
      </g>
    </g>
  </g>
</svg>
