<svg id="icon_copy" xmlns="http://www.w3.org/2000/svg" width="20" height="20" viewBox="0 0 20 20">
  <g id="矩形_3164" data-name="矩形 3164" fill="#505bde" stroke="#707070" stroke-width="1" opacity="0">
    <rect width="20" height="20" stroke="none"/>
    <rect x="0.5" y="0.5" width="19" height="19" fill="none"/>
  </g>
  <path id="联合_29" data-name="联合 29" d="M1,13.463a1,1,0,0,1-1-1V2.756a1,1,0,0,1,1-1H9.244a1,1,0,0,1,1,1v9.707a1,1,0,0,1-1,1Zm.463-4.756a.366.366,0,0,0,.366.365H4.757a.366.366,0,0,0,0-.732H1.83A.367.367,0,0,0,1.463,8.708Zm0-2.2a.366.366,0,0,0,.366.365H8.415a.366.366,0,0,0,0-.732H1.83A.367.367,0,0,0,1.463,6.512Zm0-2.2a.366.366,0,0,0,.366.365H8.415a.366.366,0,0,0,0-.732H1.83A.367.367,0,0,0,1.463,4.317Zm9.659,7.39h0V1.756a.879.879,0,0,0-.878-.877H1.756A.879.879,0,0,1,2.634,0h8.488A.879.879,0,0,1,12,.878V10.83a.878.878,0,0,1-.877.877Z" transform="translate(4 2.999)" fill="#505bde"/>
</svg>
