<svg id="组_49385" data-name="组 49385" xmlns="http://www.w3.org/2000/svg" width="24" height="24" viewBox="0 0 24 24">
  <rect id="矩形_3059" data-name="矩形 3059" width="24" height="24" fill="#505bde" opacity="0"/>
  <rect id="矩形_3285" data-name="矩形 3285" width="16" height="12" rx="1" transform="translate(4 6)" fill="#505bde"/>
  <path id="路径_84" data-name="路径 84" d="M24470.93,24566.27h-4.525a.4.4,0,0,1-.35-.605l3.576-6.062a.4.4,0,0,1,.7,0l2.309,3.91,1.334-1.379a.41.41,0,0,1,.58,0l3.332,3.453a.4.4,0,0,1-.289.684Zm2.279-8.062a1.207,1.207,0,1,1,1.207,1.211A1.208,1.208,0,0,1,24473.209,24558.207Z" transform="translate(-24460 -24549.637)" fill="#fff"/>
</svg>
