<svg id="组_49358" data-name="组 49358" xmlns="http://www.w3.org/2000/svg" width="24" height="24" viewBox="0 0 24 24">
  <rect id="矩形_3041" data-name="矩形 3041" width="24" height="24" fill="#ddd" opacity="0"/>
  <g id="组_49538" data-name="组 49538" transform="translate(1 1)">
    <path id="减去_43" data-name="减去 43" d="M2.188,11.338h0A2.617,2.617,0,0,1,0,8.75V2.625A2.628,2.628,0,0,1,2.625,0h5.25A2.628,2.628,0,0,1,10.5,2.625V5.687H8.75V2.625a.876.876,0,0,0-.875-.875H2.625a.876.876,0,0,0-.875.875V8.75a.879.879,0,0,0,.438.758v1.83Z" transform="translate(5.75 2)" fill="#ccc"/>
    <rect id="矩形_3299" data-name="矩形 3299" width="14" height="10.5" rx="2" transform="translate(4 9)" fill="#ccc"/>
    <rect id="矩形_3301" data-name="矩形 3301" width="1.75" height="4.375" rx="0.875" transform="translate(10.125 12.5)" fill="#fff"/>
  </g>
</svg>
