<svg xmlns="http://www.w3.org/2000/svg" width="160" height="64" viewBox="0 0 160 64">
  <g id="组_49533" data-name="组 49533" transform="translate(0)">
    <rect id="矩形_3440" data-name="矩形 3440" width="160" height="64" fill="#fff" opacity="0.004"/>
    <g id="组_49532" data-name="组 49532" transform="translate(0 6.666)">
      <path id="减去_55" data-name="减去 55" d="M12.8,22.727H9.415c-.127,0-.187,0-.187-.23V11.1H4.395v9.734c0,.22-.058.229-.207.229H.831c-.194,0-.236-.037-.236-.229V8.07c0-.192.042-.231.236-.231h8.4V4.375l-.394.02c-2.988.1-5.89.174-8.627.224C.056,4.619,0,4.608,0,4.389V1.66c0-.183.049-.234.232-.25,4.175-.085,8.107-.2,11.686-.333C15.405.95,18.8.787,21.991.6h.029c.089,0,.142.016.151.03a.291.291,0,0,1,.038.176V3.53c0,.247-.073.25-.207.255l-.935.052-3.5.2-4.585.217V7.839h8.4c.2,0,.232.038.232.231v9.76a3.53,3.53,0,0,1-.243,1.322,3.176,3.176,0,0,1-.661,1.016,2.885,2.885,0,0,1-.975.659,3.314,3.314,0,0,1-1.245.234H15.371c-.162,0-.211-.009-.211-.229V18.06c0-.222.045-.233.211-.233h1.369a1.043,1.043,0,0,0,.779-.321,1.085,1.085,0,0,0,.294-.783V11.1H12.978V22.5C12.978,22.727,12.917,22.727,12.8,22.727Zm30.315-.048H39.7c-.225,0-.238-.055-.238-.207V18.718H37.229a2.724,2.724,0,0,1-1.036-.2,2.826,2.826,0,0,1-.889-.555,3.051,3.051,0,0,1-.628-.82,1.893,1.893,0,0,1-.231-.923V6.378a1.881,1.881,0,0,1,.231-.921,2.932,2.932,0,0,1,.628-.821,2.863,2.863,0,0,1,.889-.557,2.776,2.776,0,0,1,1.036-.2h2.238V.906c0-.193.038-.231.238-.231H43.11c.2,0,.227.034.227.231V3.878h2.5a2.456,2.456,0,0,1,1.788.751l.009.007A2.2,2.2,0,0,1,48.4,6.378v9.84a2.431,2.431,0,0,1-.766,1.775,2.54,2.54,0,0,1-1.788.724h-2.5v3.754C43.337,22.626,43.324,22.679,43.11,22.679Zm0-9.866h0v2.645h1.619a.8.8,0,0,0,.877-.854V12.812Zm-5.9,0h0V14.6a.8.8,0,0,0,.866.854H39.7V12.812Zm5.9-5.672h0V9.785h2.5V7.993a.8.8,0,0,0-.877-.853Zm-5.033,0a.8.8,0,0,0-.866.853V9.785H39.7V7.14ZM59.783,22.651h-5.95c-.223,0-.238-.051-.238-.205V17h-2.34c-.2,0-.241-.039-.241-.233V13.944c0-.192.044-.226.241-.226h2.34V11.2H51.485c-.2,0-.236-.037-.236-.232V8.149c0-.158.015-.206.236-.206h8.353c.185,0,.212.023.212.206v2.818c0,.223-.053.232-.212.232H57.5v2.519h2.55c.2,0,.232.033.232.226v2.825c0,.2-.031.233-.232.233H57.5v2.413h2.287c.225,0,.238.048.238.2v2.825C60.02,22.6,60.008,22.651,59.783,22.651Zm-28.609,0H27.8c-.154,0-.212-.01-.212-.231V16.062l-.474.114a7.53,7.53,0,0,1-1.715.271c-.136,0-.18,0-.18-.205V13.112c0-.109,0-.2.265-.231l.013,0a3.482,3.482,0,0,0,1.274-.484,4.229,4.229,0,0,0,.995-.89,4.182,4.182,0,0,0,.677-1.213,5.344,5.344,0,0,0,.309-1.439l.029-.4H25.552c-.2,0-.232-.034-.232-.231V5.395c0-.157.013-.206.232-.206H32.2c.225,0,.24.053.24.206V7.336a16.944,16.944,0,0,1-.151,2.308,8.9,8.9,0,0,1-.5,1.9l-.156.382,1.232.337c.267.077.267.182.267.274v2.725a.152.152,0,0,1-.042.123.077.077,0,0,1-.067.029h-.058l-1.586-.383V22.42C31.384,22.641,31.335,22.651,31.174,22.651Zm42.934-.022a.342.342,0,0,1-.06,0h-.009a14.232,14.232,0,0,1-3.919-.75,8.032,8.032,0,0,1-3-1.841l-.167-.157-.22.067-.568.172c-.655.2-1.352.414-1.953.594-.7.211-1.4.412-2.08.592l-.036.01a.605.605,0,0,1-.091,0c-.038,0-.056,0-.06-.009a.269.269,0,0,1-.025-.146v-2.98c0-.149.04-.235.249-.295l3.175-.964-.082-.339a11.879,11.879,0,0,1-.24-1.334,12.557,12.557,0,0,1-.082-1.456v-.972L62,12.968c-.187,0-.231-.044-.231-.231V10.111c0-.2.056-.221.2-.229l2.973-.117V7.754l-2.979.119h-.074c-.053,0-.08-.006-.08-.01a.311.311,0,0,1-.044-.193V5.043c0-.187.054-.239.241-.254l2.935-.117V.882c0-.16.009-.207.234-.207H68.6c.231,0,.243.047.243.207V4.55l4.908-.192h.033c.091,0,.143.015.152.032a.3.3,0,0,1,.036.174V7.191c0,.2-.045.244-.25.254l-4.879.188V9.546l4.883-.218a.118.118,0,0,1,.033,0,.28.28,0,0,1,.178.038.275.275,0,0,1,.036.171v2.621c0,.153-.022.214-.234.232l-4.9.216v1.871c0,.09,0,.2.013.342.007.114.013.256.013.416v.539l.51-.188c.958-.349,1.684-.621,2.291-.86.868-.339,1.539-.61,2.131-.861l.049-.015.029-.021a.133.133,0,0,1,.064-.01.369.369,0,0,1,.031.152v2.979a.346.346,0,0,1-.218.366L71.185,18.43l.995.292c.3.085.6.157.893.217a8.548,8.548,0,0,0,.92.144c.214.032.256.093.256.26v3.1C74.249,22.629,74.213,22.629,74.108,22.629ZM94.176,22.6H78.4c-.2,0-.238-.035-.238-.231V8.271c0-.192.042-.23.238-.23H90c.2,0,.231.035.231.23v8.121c0,.194-.033.232-.231.232H82.086v2.714H93.55a3.026,3.026,0,0,0,1.962-.639,3.615,3.615,0,0,0,1.111-1.518l.005-.023.007-.021a.448.448,0,0,1,.084-.214.441.441,0,0,1,.187-.028h2.884a.335.335,0,0,1,.176.032.327.327,0,0,1,.033.19,7.027,7.027,0,0,1-1.882,4.08A5.425,5.425,0,0,1,94.176,22.6ZM82.086,10.894h0v2.849h4.277V10.894Zm10.091,5.6h0c-.229,0-.249-.058-.249-.228V13.341c0-.1,0-.191.249-.238l.025,0a2.135,2.135,0,0,0,1.708-2.179V5.9H77.519a.341.341,0,0,1-.151-.023.173.173,0,0,1,0-.054v-.1l0-.015c.314-.913.6-1.808.859-2.658s.459-1.6.643-2.28l.007-.024c.034-.176.1-.224.267-.224h3.768a.28.28,0,0,1,.183.042c.013.011.024.06.007.145-.036.17-.089.368-.158.615-.035.119-.076.245-.118.378-.025.08-.051.163-.078.249l-.053.179-.143.48H97.6c.2,0,.232.039.232.234v7.54a6.452,6.452,0,0,1-1.4,4.325A5.68,5.68,0,0,1,92.176,16.5ZM59.966,6.005H51.384a.277.277,0,0,1-.176-.045.275.275,0,0,1,0-.172L52.5.906a.287.287,0,0,1,.33-.231h3.6A.4.4,0,0,1,56.6.7a.239.239,0,0,1,.007.08V.814l-.521,1.93h3.875c.2,0,.236.036.236.232v2.8C60.2,5.967,60.162,6.005,59.966,6.005ZM26.4,3.747c-.045,0-.065-.013-.073-.025s-.054-.058-.054-.192V1.208c0-.221.062-.262.231-.282A52.423,52.423,0,0,0,32.23.013.844.844,0,0,1,32.35,0a.253.253,0,0,1,.038,0H32.4l.015,0a.344.344,0,0,1,.031.171v2.3a.277.277,0,0,1-.24.316c-.759.182-1.625.354-2.587.508s-2.029.312-3.128.443l-.018,0A.452.452,0,0,1,26.4,3.747ZM70.434,3.26H70.41c-.187,0-.211-.025-.211-.21V1.386c0-.153.022-.213.238-.234.96-.08,1.948-.182,2.928-.3h.018l.02,0a.494.494,0,0,1,.062,0c.049,0,.082.007.093.022.033.025.045.082.045.171V2.575c0,.242-.089.283-.22.307C72.3,3.042,71.309,3.168,70.434,3.26Z" transform="translate(50 14.334)" fill="#fff"/>
      <g id="组件_888_29" data-name="组件 888 – 29" transform="translate(0 2.334)">
        <g id="组_49507" data-name="组 49507">
          <rect id="矩形_3424" data-name="矩形 3424" width="45" height="45" fill="#fff" opacity="0"/>
          <path id="联合_126" data-name="联合 126" d="M15.819,33.074a30.723,30.723,0,0,0,3.712-.189c4.569-.631,9.9-3.76,9.9-10.5a9.768,9.768,0,0,0-.866-4.2,7.868,7.868,0,0,0-2.554-3.037,7.333,7.333,0,0,0,1.713-2.542,8.389,8.389,0,0,0,.588-3.172c0-5-3.564-8.548-9.3-9.251A28.014,28.014,0,0,0,15.509,0h1.705a30.689,30.689,0,0,1,4.067.182c5.74.7,9.3,4.247,9.3,9.251A8.406,8.406,0,0,1,30,12.606a7.305,7.305,0,0,1-1.714,2.542,7.841,7.841,0,0,1,2.555,3.037,9.718,9.718,0,0,1,.865,4.2c0,6.741-5.334,9.87-9.9,10.5a34.25,34.25,0,0,1-4.413.189Zm-13.745,0A2.057,2.057,0,0,1,0,31.043V2.032A2.058,2.058,0,0,1,2.074,0H12.686a30.612,30.612,0,0,1,4.062.182c5.741.7,9.3,4.247,9.3,9.251a8.406,8.406,0,0,1-.587,3.172,7.289,7.289,0,0,1-1.714,2.542A7.871,7.871,0,0,1,26.3,18.185a9.718,9.718,0,0,1,.865,4.2c0,6.741-5.332,9.87-9.9,10.5a34.392,34.392,0,0,1-4.416.189ZM6.5,26.438a11.409,11.409,0,0,0,6.772,1.81,10.355,10.355,0,0,0,6.046-1.761,5.984,5.984,0,0,0,2.59-4.993,5.959,5.959,0,0,0-1.794-4.521,11.592,11.592,0,0,0-5.656-2.63,10.561,10.561,0,0,1-3.885-1.473A2.6,2.6,0,0,1,9.48,10.6c0-1.7,1.227-2.715,3.284-2.715a3.889,3.889,0,0,1,2.829,1.018,4.465,4.465,0,0,1,1.2,2.755H21.57A8.068,8.068,0,0,0,19.157,6.54a8.881,8.881,0,0,0-6.222-2.063,9.821,9.821,0,0,0-5.86,1.766,5.967,5.967,0,0,0-2.507,4.923,6.242,6.242,0,0,0,.547,2.7,5.284,5.284,0,0,0,1.561,1.93,14.266,14.266,0,0,0,5.684,2.321,8.666,8.666,0,0,1,3.632,1.5,2.837,2.837,0,0,1,1.042,2.341,2.531,2.531,0,0,1-1.114,2.1,4.651,4.651,0,0,1-2.711.78,5.139,5.139,0,0,1-3.121-.962,4.608,4.608,0,0,1-1.726-2.847H3.587A7.143,7.143,0,0,0,6.5,26.438Z" transform="translate(9.077 6.052)" fill="#fff"/>
        </g>
      </g>
    </g>
  </g>
</svg>
