<svg id="组_49401" data-name="组 49401" xmlns="http://www.w3.org/2000/svg" width="24" height="24" viewBox="0 0 24 24">
  <rect id="矩形_3041" data-name="矩形 3041" width="24" height="24" fill="#ddd" opacity="0"/>
  <path id="联合_46" data-name="联合 46" d="M24263.777,24575l-.045,0a1.777,1.777,0,0,1-1.73-1.775v-12.451a1.777,1.777,0,0,1,1.775-1.777h10.67a.889.889,0,0,1,0,1.777h-8.893v12.451h8.893a.889.889,0,0,1,0,1.777Zm8.889-6.225h-4.33a1,1,0,0,1-1-1v-1.561a1,1,0,0,1,1-1h4.33V24563l5.334,4-5.334,4Z" transform="translate(-24258.002 -24554.998)" fill="#ccc"/>
</svg>
