<svg id="组_49387" data-name="组 49387" xmlns="http://www.w3.org/2000/svg" width="24" height="24" viewBox="0 0 24 24">
  <rect id="矩形_3059" data-name="矩形 3059" width="24" height="24" fill="#505bde" opacity="0"/>
  <rect id="矩形_3285" data-name="矩形 3285" width="16" height="12" rx="2" transform="translate(4 5)" fill="#505bde"/>
  <path id="路径_84" data-name="路径 84" d="M24473.209,24558.207a1.207,1.207,0,1,1,1.207,1.211A1.208,1.208,0,0,1,24473.209,24558.207Z" transform="translate(-24467 -24547.418)" fill="#fff"/>
  <path id="路径_85" data-name="路径 85" d="M24473.209,24558.207a1.207,1.207,0,1,1,1.207,1.211A1.208,1.208,0,0,1,24473.209,24558.207Z" transform="translate(-24462.414 -24547.418)" fill="#fff"/>
  <path id="路径_86" data-name="路径 86" d="M24473.209,24558.207a1.207,1.207,0,1,1,1.207,1.211A1.208,1.208,0,0,1,24473.209,24558.207Z" transform="translate(-24457.828 -24547.418)" fill="#fff"/>
  <path id="路径_87" data-name="路径 87" d="M3.663.719,6.006,7.654H0Z" transform="translate(19.359 19.123) rotate(150)" fill="#505bde"/>
</svg>
