<svg id="组_49357" data-name="组 49357" xmlns="http://www.w3.org/2000/svg" width="24" height="24" viewBox="0 0 24 24">
  <rect id="矩形_3253" data-name="矩形 3253" width="24" height="24" fill="#fff" opacity="0"/>
  <rect id="矩形_3296" data-name="矩形 3296" width="14" height="20" rx="2" transform="translate(5 2)" fill="#fff"/>
  <rect id="矩形_3297" data-name="矩形 3297" width="10" height="15" rx="1" transform="translate(7 4)" fill="#505bde"/>
  <rect id="矩形_3298" data-name="矩形 3298" width="4" height="1" rx="0.5" transform="translate(10 20)" fill="#505bde"/>
  <path id="phone" d="M8,6.318a1.875,1.875,0,0,1-.057.4,2.255,2.255,0,0,1-.119.389,1.524,1.524,0,0,1-.693.6A2.2,2.2,0,0,1,6.074,8a2.267,2.267,0,0,1-.3-.02,2.3,2.3,0,0,1-.327-.071q-.179-.051-.267-.082L4.863,7.71q-.227-.085-.278-.1a5.144,5.144,0,0,1-.994-.472,8.566,8.566,0,0,1-1.5-1.227,8.566,8.566,0,0,1-1.227-1.5,5.152,5.152,0,0,1-.472-.994q-.017-.051-.1-.278T.173,2.821Q.142,2.733.091,2.554A2.355,2.355,0,0,1,.02,2.227a2.216,2.216,0,0,1-.02-.3A2.2,2.2,0,0,1,.29.869a1.524,1.524,0,0,1,.6-.693A2.263,2.263,0,0,1,1.281.057,1.873,1.873,0,0,1,1.682,0,.317.317,0,0,1,1.8.017q.1.034.3.432.062.108.17.307t.2.361q.091.162.176.3.017.023.1.142a1.618,1.618,0,0,1,.122.2.367.367,0,0,1,.04.162.471.471,0,0,1-.162.284,2.775,2.775,0,0,1-.352.312,3.429,3.429,0,0,0-.352.3.433.433,0,0,0-.162.261.383.383,0,0,0,.028.128q.028.077.048.116t.08.136q.06.1.065.108a5.963,5.963,0,0,0,.989,1.335A5.963,5.963,0,0,0,4.426,5.9l.108.065q.1.06.136.08a1.193,1.193,0,0,0,.116.048.391.391,0,0,0,.128.028.433.433,0,0,0,.261-.162,3.429,3.429,0,0,0,.3-.352,2.775,2.775,0,0,1,.312-.352.471.471,0,0,1,.284-.162.371.371,0,0,1,.162.04,1.583,1.583,0,0,1,.2.122l.142.1q.142.085.3.176t.361.2q.2.108.307.17.4.2.432.3A.317.317,0,0,1,8,6.318Z" transform="translate(8 8)" fill="#fff"/>
</svg>
