<svg id="组_49182" data-name="组 49182" xmlns="http://www.w3.org/2000/svg" width="24" height="24" viewBox="0 0 24 24">
  <rect id="矩形_3059" data-name="矩形 3059" width="24" height="24" fill="#505bde" opacity="0"/>
  <path id="联合_33" data-name="联合 33" d="M22643.941,23704.508h2.115a1.063,1.063,0,0,1-2.115,0Zm-4.939-.434v-1.164l.133-.125a5.974,5.974,0,0,0,.994-1.211,5.354,5.354,0,0,0,.545-1.992v-2.047a4.434,4.434,0,0,1,3.758-4.437v-.547a.538.538,0,1,1,1.076,0v.535a4.434,4.434,0,0,1,3.8,4.449v2.047a5.5,5.5,0,0,0,.541,1.992,6.273,6.273,0,0,0,1.014,1.211l.139.125v1.164Z" transform="translate(-22633 -23686.998)" fill="#505bde"/>
</svg>
