<svg id="组_49140" data-name="组 49140" xmlns="http://www.w3.org/2000/svg" width="24" height="24" viewBox="0 0 24 24">
  <rect id="矩形_3036" data-name="矩形 3036" width="24" height="24" fill="#fff" opacity="0.001"/>
  <path id="联合_34" data-name="联合 34" d="M22645.588,23708.225h2.82a1.422,1.422,0,0,1-2.82,0Zm-6.586-.562v-1.51l.178-.162a7.835,7.835,0,0,0,1.326-1.572,6.837,6.837,0,0,0,.727-2.584v-2.654a5.8,5.8,0,0,1,5.01-5.756v-.709a.718.718,0,0,1,1.436,0v.693a5.8,5.8,0,0,1,5.066,5.771v2.654a6.977,6.977,0,0,0,.723,2.584,8.163,8.163,0,0,0,1.352,1.572l.184.162v1.51Z" transform="translate(-22635.004 -23689)" fill="#fff"/>
</svg>
