<svg id="组_49442" data-name="组 49442" xmlns="http://www.w3.org/2000/svg" width="58" height="58" viewBox="0 0 58 58">
  <rect id="矩形_3059" data-name="矩形 3059" width="58" height="58" fill="#505bde" opacity="0"/>
  <g id="组_49438" data-name="组 49438" transform="translate(4 7)">
    <rect id="矩形_3285" data-name="矩形 3285" width="28.444" height="32.711" rx="3" transform="translate(9 4.711)" fill="#505bde"/>
    <rect id="矩形_3116" data-name="矩形 3116" width="23.101" height="26.309" rx="1" transform="translate(11.672 8.268)" fill="#fff"/>
    <rect id="矩形_3335" data-name="矩形 3335" width="9.956" height="4.267" rx="1" transform="translate(18.244 5.422)" fill="#505bde"/>
    <rect id="矩形_3331" data-name="矩形 3331" width="14.222" height="4.267" rx="1" transform="translate(16.111 4)" fill="#505bde"/>
    <rect id="矩形_3332" data-name="矩形 3332" width="18.172" height="1.422" rx="0.711" transform="translate(14.137 13.955)" fill="#505bde" opacity="0.997"/>
    <rect id="矩形_3333" data-name="矩形 3333" width="18.172" height="1.422" rx="0.711" transform="translate(14.137 19.642)" fill="#505bde" opacity="0.997"/>
    <rect id="矩形_3334" data-name="矩形 3334" width="8.437" height="1.422" rx="0.711" transform="translate(14.137 25.332)" fill="#505bde" opacity="0.997"/>
    <path id="路径_65" data-name="路径 65" d="M7.111,0A7.111,7.111,0,1,1,0,7.111,7.111,7.111,0,0,1,7.111,0Z" transform="translate(26.778 25.333)" fill="#505bde"/>
    <path id="路径_509" data-name="路径 509" d="M6.076.475a5.6,5.6,0,1,0,5.6,5.6,5.608,5.608,0,0,0-5.6-5.6m0-.475A6.076,6.076,0,1,1,0,6.076,6.076,6.076,0,0,1,6.076,0Z" transform="translate(27.813 26.368)" fill="#fff"/>
    <path id="路径_51" data-name="路径 51" d="M-22837.619-22864.148h0a.533.533,0,0,1-.377-.158l-1.932-1.932a.535.535,0,0,1,0-.754.531.531,0,0,1,.752,0l1.555,1.555,3.492-3.488a.513.513,0,0,1,.375-.154.519.519,0,0,1,.379.154.533.533,0,0,1,0,.754l-3.867,3.867A.529.529,0,0,1-22837.619-22864.148Z" transform="translate(22870.537 22899.57)" fill="#fff"/>
  </g>
</svg>
