<svg id="组_49137" data-name="组 49137" xmlns="http://www.w3.org/2000/svg" width="40" height="40" viewBox="0 0 40 40">
  <rect id="矩形_1033" data-name="矩形 1033" width="40" height="40" fill="#fff" opacity="0"/>
  <g id="组_49136" data-name="组 49136" transform="translate(-209.18 -260.998)">
    <path id="减去_16" data-name="减去 16" d="M23132.455,23967H23117a3.007,3.007,0,0,1-3-3V23938a3.007,3.007,0,0,1,3-3h22a3,3,0,0,1,3,3v13.75a9.563,9.563,0,0,0-2-.25V23938a1,1,0,0,0-1-1.006h-22a1,1,0,0,0-1,1.006V23964a1,1,0,0,0,1,1h14.2a9.568,9.568,0,0,0,1.25,2Z" transform="translate(-22901.82 -23670)" fill="#fff"/>
    <path id="矩形_1063" data-name="矩形 1063" d="M1,0H17a1,1,0,0,1,0,2H1A1,1,0,0,1,1,0Z" transform="translate(217.18 271)" fill="#fff"/>
    <path id="减去_17" data-name="减去 17" d="M23122,23949a8,8,0,1,1,8-8A8.01,8.01,0,0,1,23122,23949Zm-3-9a1,1,0,1,0,0,2h2.006v2a1,1,0,1,0,2,0v-2h2a1,1,0,0,0,0-2h-2v-2a1,1,0,1,0-2,0v2Z" transform="translate(-22884 -23650)" fill="#fff"/>
    <path id="矩形_1064" data-name="矩形 1064" d="M1,0H15a1,1,0,0,1,0,2H1A1,1,0,0,1,1,0Z" transform="translate(217.18 277)" fill="#fff"/>
    <path id="矩形_1065" data-name="矩形 1065" d="M1,0H9A1,1,0,0,1,9,2H1A1,1,0,0,1,1,0Z" transform="translate(217.18 283)" fill="#fff"/>
  </g>
</svg>
