<svg id="组_49138" data-name="组 49138" xmlns="http://www.w3.org/2000/svg" width="40" height="40" viewBox="0 0 40 40">
  <rect id="矩形_1033" data-name="矩形 1033" width="40" height="40" fill="#fff" opacity="0"/>
  <path id="联合_11" data-name="联合 11" d="M22491.178,24612v-2.227h8.029a1.563,1.563,0,0,0,1.559-1.566v-8.021H22503v8.021a3.8,3.8,0,0,1-3.793,3.793Zm-18.387,0a3.794,3.794,0,0,1-3.791-3.793v-8.021h2.23v8.021a1.565,1.565,0,0,0,1.561,1.566h8.029V24612Zm27.975-22.182v-8.025a1.567,1.567,0,0,0-1.559-1.564h-8.029V24578h8.029a3.8,3.8,0,0,1,3.793,3.793v8.025Zm-31.766,0v-8.025a3.8,3.8,0,0,1,3.791-3.793h8.029v2.229h-8.029a1.568,1.568,0,0,0-1.561,1.564v8.025Z" transform="translate(-22466 -24574.996)" fill="#fff"/>
  <circle id="椭圆_13" data-name="椭圆 13" cx="6" cy="6" r="6" transform="translate(14 18)" fill="#fff"/>
  <rect id="矩形_1054" data-name="矩形 1054" width="18" height="2" rx="1" transform="translate(11 28)" fill="#fff"/>
  <path id="联合_12" data-name="联合 12" d="M23114,23936h1.5v-3h3v3h1.5l-3,3Z" transform="translate(-23097 -23925)" fill="#fff"/>
</svg>
