<svg id="组_49133" data-name="组 49133" xmlns="http://www.w3.org/2000/svg" width="40" height="40" viewBox="0 0 40 40">
  <rect id="矩形_1033" data-name="矩形 1033" width="40" height="40" fill="#fff" opacity="0"/>
  <path id="联合_5" data-name="联合 5" d="M22491.176,24612v-2.227h8.029a1.565,1.565,0,0,0,1.561-1.566v-8.021H22503v8.021a3.8,3.8,0,0,1-3.793,3.793Zm-18.385,0a3.8,3.8,0,0,1-3.793-3.793v-8.021h2.232v8.021a1.565,1.565,0,0,0,1.561,1.566h8.029V24612Zm27.975-22.182v-8.023a1.568,1.568,0,0,0-1.561-1.566h-8.029V24578h8.029a3.8,3.8,0,0,1,3.793,3.795v8.023Zm-31.768,0v-8.023a3.8,3.8,0,0,1,3.793-3.795h8.029v2.229h-8.029a1.568,1.568,0,0,0-1.561,1.566v8.023Z" transform="translate(-22465.998 -24574.996)" fill="#fff" opacity="0.995"/>
  <rect id="矩形_1053" data-name="矩形 1053" width="22" height="2" rx="1" transform="translate(9 19)" fill="#fff"/>
</svg>
