<svg id="组_49317" data-name="组 49317" xmlns="http://www.w3.org/2000/svg" width="24" height="24" viewBox="0 0 24 24">
  <rect id="矩形_3059" data-name="矩形 3059" width="24" height="24" fill="#ddd" opacity="0"/>
  <circle id="椭圆_81" data-name="椭圆 81" cx="6" cy="6" r="6" transform="translate(6 6)" fill="#fff"/>
  <g id="settings" transform="translate(0.752 1.172)">
    <path id="减去_120" data-name="减去 120" d="M23727.965,24575.828h-3.436a1.088,1.088,0,0,1-1.061-.857l-.006-.029-.223-1.549a.643.643,0,0,0-.326-.463c-.111-.055-.213-.113-.32-.178l-.01-.006-.078-.045a.6.6,0,0,0-.332-.1.705.705,0,0,0-.248.047l-1.486.58-.018.006a1.087,1.087,0,0,1-.381.068,1.075,1.075,0,0,1-.922-.512l-.006-.006-1.715-2.895a1.024,1.024,0,0,1,.242-1.332l.012-.012,1.27-.969a.655.655,0,0,0,.248-.518v-.457a.635.635,0,0,0-.248-.518l-1.27-.969-.02-.018a1.029,1.029,0,0,1-.234-1.332l1.721-2.893,0-.006a1.087,1.087,0,0,1,1.307-.451l.012.006,1.492.592a.642.642,0,0,0,.242.045.634.634,0,0,0,.338-.094c.129-.078.264-.158.4-.229a.634.634,0,0,0,.326-.463l.223-1.553,0-.025a1.081,1.081,0,0,1,1.063-.875h3.436a1.085,1.085,0,0,1,1.061.855l.006.031.229,1.549a.614.614,0,0,0,.326.463c.137.074.271.146.4.229a.63.63,0,0,0,.344.1.61.61,0,0,0,.234-.043l1.494-.586.012-.006a1.087,1.087,0,0,1,.381-.068,1.1,1.1,0,0,1,.926.512l0,.006,1.723,2.893a1.022,1.022,0,0,1-.24,1.334l-.018.012-1.266.969a.659.659,0,0,0-.246.518v.457a.611.611,0,0,0,.246.518l1.266.969.018.018.006,0a1.024,1.024,0,0,1,.234,1.336l-1.721,2.887v.014a1.1,1.1,0,0,1-.924.508,1.072,1.072,0,0,1-.383-.07l-.012-.006-1.494-.58a.6.6,0,0,0-.238-.047.657.657,0,0,0-.34.1c-.131.082-.266.154-.4.229a.613.613,0,0,0-.326.463l-.229,1.547v.025A1.079,1.079,0,0,1,23727.965,24575.828Zm-1.715-12.2a3.245,3.245,0,0,0-3.281,3.2,3.136,3.136,0,0,0,.961,2.26,3.345,3.345,0,0,0,4.641,0,3.136,3.136,0,0,0,.961-2.26A3.245,3.245,0,0,0,23726.25,24563.629Z" transform="translate(-23715 -24556)" fill="#ccc"/>
  </g>
</svg>
