<svg id="组_49161" data-name="组 49161" xmlns="http://www.w3.org/2000/svg" width="60" height="44" viewBox="0 0 60 44">
  <rect id="矩形_3072" data-name="矩形 3072" width="60" height="44" fill="#fff" opacity="0"/>
  <g id="组_49153" data-name="组 49153" transform="translate(10 1)">
    <path id="路径_35" data-name="路径 35" d="M255.266,338.513a2.947,2.947,0,1,1-4.163-.213A2.947,2.947,0,0,1,255.266,338.513Z" transform="translate(-243.278 -335.63)" fill="#ffce8b"/>
    <path id="路径_36" data-name="路径 36" d="M233.926,320.852a.909.909,0,0,1,1.805-.219c.112,4.1-.079,6.966-1.578,10.086l-3.793,6.856,3.016,2a2.073,2.073,0,0,1,.789,2.719l-2.778,5.609a1.185,1.185,0,1,1-2.206-.867l1.951-5.014-3.463-1.536-1.656,3.257a3.971,3.971,0,0,1-1.925,1.693l-5.509,2.1a1.185,1.185,0,1,1-.936-2.178l5.23-2.827a60.675,60.675,0,0,1,2.005-5.8,35.875,35.875,0,0,1,2.7-4.222,26.325,26.325,0,0,1,3.059-3.6C232.09,327.282,233.468,325.761,233.926,320.852Z" transform="translate(-216.928 -319.85)" fill="#505bde"/>
  </g>
  <rect id="矩形_3073" data-name="矩形 3073" width="4.694" height="7.796" transform="translate(21.682 31.666)" fill="#ccc"/>
  <rect id="矩形_3074" data-name="矩形 3074" width="4.694" height="12.474" transform="translate(29.504 26.988)" fill="#ccc"/>
  <rect id="矩形_3075" data-name="矩形 3075" width="4.694" height="20.27" transform="translate(37.328 19.191)" fill="#ccc"/>
  <path id="联合_29" data-name="联合 29" d="M22663.148,23621.461V23597H22660l5.5-7,5.5,7h-3.154v24.459Z" transform="translate(-22618 -23582)" fill="#505bde"/>
</svg>
