<svg id="组_49164" data-name="组 49164" xmlns="http://www.w3.org/2000/svg" width="60" height="44" viewBox="0 0 60 44">
  <rect id="矩形_3041" data-name="矩形 3041" width="60" height="44" fill="#fff" opacity="0"/>
  <g id="プレゼンテーションアイコン" transform="translate(12 -10.551)">
    <path id="路径_43" data-name="路径 43" d="M78.686,40.086a2.763,2.763,0,1,0-2.763-2.762A2.763,2.763,0,0,0,78.686,40.086Z" transform="translate(-70.532 -17.66)" fill="#ffce8b"/>
    <path id="路径_44" data-name="路径 44" d="M17.451,136.769l4.459-2.133a1.183,1.183,0,0,0-.921-2.179l-4.009,1.37-3.627-1.268a7,7,0,0,0-2.152-.391L8.386,132.1c-3,0-5.663,1-6.327,4.325L.029,144.9a1.183,1.183,0,1,0,2.309.516l2.135-5.646.552,16.8a1.4,1.4,0,0,0,2.8,0l.557-10.019.556,10.019a1.4,1.4,0,0,0,2.8,0l.789-20.415,3.2.887A2.613,2.613,0,0,0,17.451,136.769Z" transform="translate(0 -108.278)" fill="#505bde"/>
    <path id="路径_45" data-name="路径 45" d="M207.074,17.087h17.994V31.732H207.074V30.509a4.326,4.326,0,0,1-.7-.067l-.075-.014-.759-.21v3.05H226.6V15.55H205.537v7.359l1.537.537Z" transform="translate(-190.943)" fill="#ccc"/>
    <path id="路径_46" data-name="路径 46" d="M233.724,322.535a2.763,2.763,0,1,0,2.763-2.763A2.763,2.763,0,0,0,233.724,322.535Z" transform="translate(-217.129 -282.621)" fill="#ffce8b"/>
    <path id="路径_47" data-name="路径 47" d="M201.109,417.042c-2.592,0-4.894.864-5.467,3.737l.046,1.9h10.843l.045-1.9C206,417.906,203.7,417.042,201.109,417.042Z" transform="translate(-181.75 -372.984)" fill="#505bde"/>
    <path id="路径_48" data-name="路径 48" d="M396.079,322.535a2.763,2.763,0,1,0,2.763-2.763A2.763,2.763,0,0,0,396.079,322.535Z" transform="translate(-367.955 -282.621)" fill="#ffce8b"/>
    <path id="路径_49" data-name="路径 49" d="M363.463,417.042c-2.592,0-4.893.864-5.467,3.737l.046,1.9h10.843l.046-1.9C368.356,417.906,366.055,417.042,363.463,417.042Z" transform="translate(-332.576 -372.984)" fill="#505bde"/>
    <path id="路径_50" data-name="路径 50" d="M353.208,84.991a2.414,2.414,0,0,1-1.156.247,4.21,4.21,0,0,1-1.111-.153,2.97,2.97,0,0,1-.866-.53.217.217,0,0,0-.266.032l-.658.657a.224.224,0,0,0-.062.18.215.215,0,0,0,.1.159,4.143,4.143,0,0,0,1.186.709,5.851,5.851,0,0,0,1.067.182v1.077h1.313v-1.1a4.82,4.82,0,0,0,.513-.1,2.816,2.816,0,0,0,.974-.444,2.167,2.167,0,0,0,.639-.733,2.135,2.135,0,0,0,.233-1.019,1.851,1.851,0,0,0-.59-1.483,3.018,3.018,0,0,0-1.736-.61l-1.032-.088a1.413,1.413,0,0,1-.785-.262.727.727,0,0,1-.232-.582.834.834,0,0,1,.326-.683,1.606,1.606,0,0,1,1.01-.262,3.937,3.937,0,0,1,1,.124,2.573,2.573,0,0,1,.68.342.216.216,0,0,0,.251-.04l.617-.627a.218.218,0,0,0,.06-.185.213.213,0,0,0-.112-.157,3.247,3.247,0,0,0-.944-.5,5.174,5.174,0,0,0-.87-.154v-.928h-1.313v.948a3.748,3.748,0,0,0-.434.09,2.648,2.648,0,0,0-.88.436,2.1,2.1,0,0,0-.6.713,2.059,2.059,0,0,0-.219.96,1.8,1.8,0,0,0,.567,1.453,2.877,2.877,0,0,0,1.614.581l1.177.1a1.3,1.3,0,0,1,.763.276.788.788,0,0,1,.226.6A.82.82,0,0,1,353.208,84.991Z" transform="translate(-324.302 -58.075)" fill="#666"/>
  </g>
</svg>
