<svg id="组_49160" data-name="组 49160" xmlns="http://www.w3.org/2000/svg" width="60" height="44" viewBox="0 0 60 44">
  <g id="矩形_3077" data-name="矩形 3077" fill="#fff" stroke="#707070" stroke-width="1" opacity="0">
    <rect width="60" height="44" stroke="none"/>
    <rect x="0.5" y="0.5" width="59" height="43" fill="none"/>
  </g>
  <g id="组_49155" data-name="组 49155" transform="translate(23506.512 23264.754)">
    <path id="联合_22" data-name="联合 22" d="M3.344,4.553A4.038,4.038,0,0,1,.955,2.489L0,2.955.481,0,3.108,1.441l-1.014.493A3.845,3.845,0,0,0,4.12,3.594,3.712,3.712,0,0,0,7,3.432a3.742,3.742,0,0,0,1.9-2.166,4.184,4.184,0,0,1-.774,1.768,4.378,4.378,0,0,1-1.568,1.29,4.313,4.313,0,0,1-1.894.443A4.231,4.231,0,0,1,3.344,4.553Z" transform="matrix(-0.819, -0.574, 0.574, -0.819, -23460.719, -23251.297)" fill="#ccc"/>
    <path id="联合_23" data-name="联合 23" d="M3.344,4.553A4.038,4.038,0,0,1,.955,2.489L0,2.955.481,0,3.108,1.441l-1.014.493A3.845,3.845,0,0,0,4.12,3.594,3.712,3.712,0,0,0,7,3.432a3.742,3.742,0,0,0,1.9-2.166,4.184,4.184,0,0,1-.774,1.768,4.378,4.378,0,0,1-1.568,1.29,4.313,4.313,0,0,1-1.894.443A4.231,4.231,0,0,1,3.344,4.553Z" transform="matrix(0.755, 0.656, -0.656, 0.755, -23495.391, -23239.053)" fill="#505bde"/>
    <g id="组_49159" data-name="组 49159" transform="matrix(0.966, -0.259, 0.259, 0.966, 5217.448, -6872.148)">
      <path id="减去_26" data-name="减去 26" d="M7,0A7,7,0,1,1,0,7,7,7,0,0,1,7,0Z" transform="translate(-23497.852 -23258.301)" fill="#ccc"/>
      <path id="联合_24" data-name="联合 24" d="M0,3.5H5.675L2.839,6.655Zm0-.342L2.839,0,5.675,3.158Z" transform="translate(-23493.594 -23254.752)" fill="#fff"/>
    </g>
    <g id="组_49158" data-name="组 49158" transform="matrix(0.966, -0.259, 0.259, 0.966, 5214.608, -6868.412)">
      <path id="减去_22" data-name="减去 22" d="M6.57,0A6.57,6.57,0,1,1,0,6.57,6.57,6.57,0,0,1,6.57,0Z" transform="translate(-23487 -23240)" fill="#505bde"/>
      <path id="联合_25" data-name="联合 25" d="M2.244,6V5.5H1.371V6H.495V5.5H0V.506H.495V0h.877V.506h.872V0h.874V.538A1.847,1.847,0,0,1,3.97.863a1.067,1.067,0,0,1,.449.9,1.121,1.121,0,0,1-.232.711,1.4,1.4,0,0,1-.66.413,1.464,1.464,0,0,1,.853.4,1.134,1.134,0,0,1,.282.8,1.207,1.207,0,0,1-.6,1.112,2.335,2.335,0,0,1-.947.269V6ZM.939,4.826H2.5a1.929,1.929,0,0,0,.837-.146.625.625,0,0,0,.385-.6.681.681,0,0,0-.284-.618,1.705,1.705,0,0,0-.912-.187H.939Zm0-2.224h1.44a1.569,1.569,0,0,0,.851-.176.659.659,0,0,0,.25-.565.585.585,0,0,0-.25-.518,1.6,1.6,0,0,0-.837-.167H.939Z" transform="translate(-23482.307 -23236.246)" fill="#fff"/>
    </g>
    <g id="组_49156" data-name="组 49156" transform="translate(-7314.376 5566.489) rotate(16)">
      <path id="减去_23" data-name="减去 23" d="M7,0A7,7,0,1,1,0,7,7,7,0,0,1,7,0Z" transform="translate(-23468 -23246)" fill="#ccc"/>
      <path id="路径_38" data-name="路径 38" d="M2.9-10,4.864-6.881h-1.3v.591H5.243l.01.009v.743H3.564v.591H5.253v1.343h1.29V-4.948h1.7v-.591h-1.7v-.743l.01-.009H8.243v-.591H6.932L8.9-10H7.444L5.9-7.3,4.352-10Z" transform="translate(-23466.898 -23232.004)" fill="#fff"/>
    </g>
    <g id="组_49157" data-name="组 49157" transform="translate(-10417.337 7102.842) rotate(22)">
      <path id="减去_24" data-name="减去 24" d="M5,0A5,5,0,1,1,0,5,5,5,0,0,1,5,0Z" transform="translate(-23480 -23256)" fill="#505bde"/>
      <path id="路径_39" data-name="路径 39" d="M2.185-10.726a1.994,1.994,0,0,0-1.045.336,1.252,1.252,0,0,0-.556,1.1,1.319,1.319,0,0,0,.76,1.228l.841.307V-6.04a.918.918,0,0,1-.526-.219,1.248,1.248,0,0,1-.292-.819H.518A1.978,1.978,0,0,0,1.044-5.74a1.8,1.8,0,0,0,1.141.424v.643h.483v-.643a2.262,2.262,0,0,0,1.1-.329,1.312,1.312,0,0,0,.592-1.17A1.347,1.347,0,0,0,3.6-8.043c-.044-.029-.358-.146-.936-.358V-10.01a.917.917,0,0,1,.439.154.9.9,0,0,1,.329.643h.833a1.686,1.686,0,0,0-.556-1.155,1.839,1.839,0,0,0-1.045-.358v-.6H2.185Zm.483,3.151a.356.356,0,0,1,.08.029c.5.175.76.431.76.76a.634.634,0,0,1-.307.563,1.319,1.319,0,0,1-.534.183ZM2.185-8.584q-.746-.285-.746-.7a.626.626,0,0,1,.292-.585,1.035,1.035,0,0,1,.453-.146Z" transform="translate(-23477.297 -23242.969)" fill="#fff"/>
    </g>
  </g>
</svg>
