<svg xmlns="http://www.w3.org/2000/svg" width="40" height="40" viewBox="0 0 40 40">
  <g id="组_49139" data-name="组 49139" transform="translate(2)">
    <rect id="矩形_1033" data-name="矩形 1033" width="40" height="40" transform="translate(-2)" fill="#fff" opacity="0"/>
    <path id="联合_15" data-name="联合 15" d="M22503.537,24816a3.008,3.008,0,0,1-3-3v-10.23l-.816.9a.947.947,0,0,1-1.414.025,1.135,1.135,0,0,1-.018-1.525l2.578-2.846a.972.972,0,0,1,.717-.324h.012a.963.963,0,0,1,.723.348l2.422,2.854a1.125,1.125,0,0,1-.062,1.514.944.944,0,0,1-.672.285.979.979,0,0,1-.74-.354l-.729-.857V24813a1,1,0,0,0,1,1h28a1,1,0,0,0,1-1v-11.5h2v11.5a3,3,0,0,1-3,3Zm30.006-17a.962.962,0,0,1-.715-.324l-2.541-2.883a1.12,1.12,0,0,1,.018-1.514.952.952,0,0,1,1.414.02l.816.9V24785a1,1,0,0,0-1-1h-28a1,1,0,0,0-1,1v11.5h-2V24785a3.007,3.007,0,0,1,3-3h28a3,3,0,0,1,3,3v10.178l.723-.85a.948.948,0,0,1,1.414-.068,1.136,1.136,0,0,1,.063,1.52l-2.459,2.877a.981.981,0,0,1-.723.35Z" transform="translate(-22499.504 -24779)" fill="#fff"/>
    <path id="减去_19" data-name="减去 19" d="M9,18a9,9,0,1,1,9-9A9.01,9.01,0,0,1,9,18ZM5.887,10.976v.792H8.14v1.8h1.72v-1.8h2.266v-.792H9.859v-1l.014-.012h2.253V9.176H10.379L13,5H11.061L9,8.612,6.938,5H5L7.621,9.176H5.887v.792H8.126l.014.012v1Z" transform="translate(9 11)" fill="#fff"/>
  </g>
</svg>
