<svg id="组_49147" data-name="组 49147" xmlns="http://www.w3.org/2000/svg" width="24" height="24" viewBox="0 0 24 24">
  <rect id="矩形_3059" data-name="矩形 3059" width="24" height="24" fill="#505bde" opacity="0"/>
  <rect id="矩形_3116" data-name="矩形 3116" width="9" height="6" transform="translate(10 10)" fill="#fff"/>
  <path id="联合_32" data-name="联合 32" d="M22675.09,23704.146h-.012a2.221,2.221,0,0,1-1.463-.523,1.668,1.668,0,0,1-.613-1.268v-9.107a1.4,1.4,0,0,1,1.48-1.25h11.916a.439.439,0,1,1,0,.869h-11.885a.44.44,0,1,0,0,.869h12.082a.475.475,0,0,1,.506.434v9.543a.475.475,0,0,1-.506.434Zm4.146-4.783a1.882,1.882,0,0,0,1.881,1.881h5.127v-3.76h-5.127A1.88,1.88,0,0,0,22679.236,23699.363Zm.773,0a.78.78,0,1,1,.779.75A.766.766,0,0,1,22680.01,23699.363Z" transform="translate(-22668.053 -23686.289)" fill="#505bde"/>
</svg>
