<svg id="Tencent_QQ_Logo_" data-name="Tencent QQ Logo " xmlns="http://www.w3.org/2000/svg" width="40" height="40" viewBox="0 0 40 40">
  <g id="组_49239" data-name="组 49239">
    <path id="路径_57" data-name="路径 57" d="M63,73.5h0a20,20,0,0,1-20-20h0a20,20,0,0,1,20-20h0a20,20,0,0,1,20,20h0A20,20,0,0,1,63,73.5Z" transform="translate(-43 -33.5)" fill="#00aff0"/>
    <g id="组_49223" data-name="组 49223" transform="translate(8.4 6.213)">
      <path id="路径_58" data-name="路径 58" d="M241.375,472.895a9.515,9.515,0,0,1-6.026-2,7.962,7.962,0,0,0-2.227.991c-.5.368-.437.741-.346.895.4.664,6.759.426,8.6.217Z" transform="translate(-229.776 -445.633)" fill="#faab07"/>
      <path id="路径_59" data-name="路径 59" d="M344,472.895a9.515,9.515,0,0,0,6.026-2,8,8,0,0,1,2.226.991c.5.368.437.741.346.895-.4.664-6.759.426-8.6.217Z" transform="translate(-332.397 -445.633)" fill="#faab07"/>
      <path id="路径_60" data-name="路径 60" d="M241.567,159.2a33.281,33.281,0,0,0,8.222-1.09,1.048,1.048,0,0,0,.4-.195c0-.036.016-.645.016-.961,0-5.3-2.5-10.619-8.648-10.619s-8.648,5.323-8.648,10.619c0,.316.016.925.016.961a.748.748,0,0,0,.316.176,33.343,33.343,0,0,0,8.3,1.112h.027Z" transform="translate(-229.952 -146.333)"/>
      <path id="路径_61" data-name="路径 61" d="M217.349,337.416c-.247-.791-.582-1.713-.922-2.6a.955.955,0,0,0-.294.005,35.729,35.729,0,0,1-9.565,1.417h-.03a35.688,35.688,0,0,1-9.513-1.4,1.418,1.418,0,0,0-.346-.019c-.34.887-.675,1.809-.922,2.6-1.172,3.775-.793,5.334-.5,5.37.62.074,2.416-2.841,2.416-2.841,0,2.962,2.674,7.511,8.8,7.555h.162c6.125-.041,8.8-4.59,8.8-7.555,0,0,1.8,2.916,2.416,2.841.291-.036.67-1.6-.5-5.37" transform="translate(-194.956 -320.14)"/>
      <path id="路径_62" data-name="路径 62" d="M296.985,195.005c-.835.038-1.546-.911-1.592-2.119s.593-2.218,1.428-2.257,1.546.911,1.59,2.122-.59,2.218-1.425,2.254" transform="translate(-287.575 -187.181)" fill="#fff"/>
      <path id="路径_63" data-name="路径 63" d="M356.762,192.855c-.044,1.208-.758,2.158-1.592,2.119s-1.472-1.049-1.428-2.257.758-2.158,1.59-2.122,1.474,1.051,1.43,2.259" transform="translate(-341.384 -187.15)" fill="#fff"/>
      <path id="路径_64" data-name="路径 64" d="M286.731,256.456c-.222-.494-2.468-1.043-5.246-1.043h-.03c-2.778,0-5.024.549-5.246,1.043a.152.152,0,0,0-.016.071.166.166,0,0,0,.03.1,9.665,9.665,0,0,0,5.233,1.628h.03a9.676,9.676,0,0,0,5.233-1.628.167.167,0,0,0,.03-.1.182.182,0,0,0-.016-.071" transform="translate(-269.87 -246.924)" fill="#faab07"/>
      <path id="路径_65" data-name="路径 65" d="M313.543,210.564a.828.828,0,0,1-.585.947c-.36.047-.684-.3-.722-.78a.829.829,0,0,1,.582-.947c.362-.047.686.3.725.78" transform="translate(-303.106 -204.843)"/>
      <path id="路径_66" data-name="路径 66" d="M358.254,214.45a1.421,1.421,0,0,1,1.614-.574.815.815,0,0,1,.426.2.268.268,0,0,1,.011.247.235.235,0,0,1-.332.167,1.1,1.1,0,0,0-1.45.211.15.15,0,0,1-.206.008.222.222,0,0,1-.063-.264" transform="translate(-345.528 -208.569)"/>
      <path id="路径_67" data-name="路径 67" d="M264.074,342.943h-.03a33.011,33.011,0,0,1-6.487-.675,18.307,18.307,0,0,0-.209,4.189c.253,4.225,2.762,6.88,6.633,6.918h.156c3.874-.038,6.383-2.693,6.636-6.918a18.317,18.317,0,0,0-.209-4.189,32.85,32.85,0,0,1-6.49.675" transform="translate(-252.46 -327.019)" fill="#fff"/>
      <path id="路径_68" data-name="路径 68" d="M274.075,346.395v4.156a12.921,12.921,0,0,0,3.813.118v-3.833a34.464,34.464,0,0,1-3.813-.442" transform="translate(-267.918 -330.826)" fill="#eb1923"/>
      <path id="路径_69" data-name="路径 69" d="M235.607,295.136a32.327,32.327,0,0,1-8.618,1.2h-.03a32.4,32.4,0,0,1-8.618-1.2l-1.241,3.1a35.853,35.853,0,0,0,9.859,1.5h.03a35.764,35.764,0,0,0,9.859-1.5Z" transform="translate(-215.377 -283.556)" fill="#eb1923"/>
    </g>
  </g>
</svg>
