<svg id="组件_780_1" data-name="组件 780 – 1" xmlns="http://www.w3.org/2000/svg" width="40" height="40" viewBox="0 0 40 40">
  <g id="组_49218" data-name="组 49218">
    <circle id="椭圆_62" data-name="椭圆 62" cx="20" cy="20" r="20" fill="#00aff0"/>
    <g id="skype-seeklogo.com" transform="translate(8.001 8.001)">
      <path id="路径_56" data-name="路径 56" d="M23.151,14c-.008.042-.013.085-.021.127l-.041-.242c.022.038.041.077.062.115a11.444,11.444,0,0,0,.189-2.059A11.342,11.342,0,0,0,9.861.788H9.855c.04.021.079.04.118.061L9.735.812l.12-.024a6.717,6.717,0,0,0-9.011,9.2c.007-.041.012-.083.02-.124l.041.238c-.021-.037-.04-.076-.061-.114a11.468,11.468,0,0,0-.171,1.958A11.363,11.363,0,0,0,7.6,22.411a11.217,11.217,0,0,0,4.411.894,11.368,11.368,0,0,0,1.985-.177c-.038-.021-.077-.041-.116-.063l.242.043c-.042.008-.084.013-.127.021A6.717,6.717,0,0,0,23.151,14Zm-11.1,4.9c-4.026,0-5.827-1.984-5.827-3.471a1.267,1.267,0,0,1,1.336-1.3c1.723,0,1.277,2.48,4.491,2.48,1.646,0,2.555-.9,2.555-1.812,0-.551-.271-1.162-1.355-1.43l-3.581-.9c-2.884-.725-3.407-2.288-3.407-3.757,0-3.05,2.865-4.2,5.556-4.2,2.478,0,5.4,1.373,5.4,3.2a1.311,1.311,0,0,1-1.451,1.24c-1.471,0-1.2-2.04-4.162-2.04-1.47,0-2.284.667-2.284,1.622s1.161,1.257,2.169,1.487l2.651.59c2.9.648,3.64,2.348,3.64,3.948C17.781,17.051,15.883,18.9,12.052,18.9Zm1.824,4.164c.039.022.078.042.116.063.043-.008.085-.013.127-.021Zm9.254-8.934c.008-.042.013-.085.021-.127-.021-.038-.04-.077-.062-.115ZM.864,9.862c-.008.041-.013.083-.02.124.021.038.04.077.061.114ZM9.974.85C9.935.828,9.895.809,9.855.788l-.12.024Z" transform="translate(0 0)" fill="#fff"/>
    </g>
  </g>
</svg>
