<svg id="Telegram_logo" xmlns="http://www.w3.org/2000/svg" xmlns:xlink="http://www.w3.org/1999/xlink" width="40" height="40" viewBox="0 0 40 40">
  <defs>
    <linearGradient id="linear-gradient" x1="0.66" y1="0.437" x2="0.851" y2="0.802" gradientUnits="objectBoundingBox">
      <stop offset="0" stop-color="#eff7fc"/>
      <stop offset="1" stop-color="#fff"/>
    </linearGradient>
  </defs>
  <g id="组_49238" data-name="组 49238">
    <circle id="椭圆_61" data-name="椭圆 61" cx="20" cy="20" r="20" fill="#00aff0"/>
    <path id="路径_4" data-name="路径 4" d="M84.667,95.833c-.648,0-.538-.245-.761-.862L82,88.7,96.667,80" transform="translate(-68.334 -66.666)" fill="#c8daea"/>
    <path id="路径_5" data-name="路径 5" d="M98,149.506a1.281,1.281,0,0,0,1-.5l2.667-2.593-3.326-2.006" transform="translate(-81.666 -120.34)" fill="#a9c9dd"/>
    <path id="路径_6" data-name="路径 6" d="M57.439,84.218l8.06,5.955c.92.507,1.583.245,1.813-.854l3.281-15.46c.336-1.347-.513-1.958-1.393-1.558L49.934,79.729c-1.315.527-1.307,1.261-.24,1.588l4.944,1.543,11.445-7.221c.54-.328,1.036-.152.629.21" transform="translate(-40.766 -60.15)" fill="url(#linear-gradient)"/>
  </g>
</svg>
